<svg width="27" height="36" viewBox="0 0 27 36" fill="none" xmlns="http://www.w3.org/2000/svg">
<path d="M22.0993 8.68618L22.751 8.06549C23.0616 8.24166 23.4119 8.33566 23.7689 8.3386C24.1863 8.3386 24.5943 8.21483 24.9414 7.98294C25.2884 7.75105 25.5589 7.42146 25.7186 7.03585C25.8784 6.65023 25.9202 6.22591 25.8387 5.81655C25.7573 5.40718 25.5563 5.03115 25.2612 4.73601C24.966 4.44088 24.59 4.23989 24.1806 4.15846C23.7713 4.07703 23.347 4.11882 22.9613 4.27855C22.5757 4.43828 22.2461 4.70876 22.0143 5.05581C21.7824 5.40285 21.6586 5.81087 21.6586 6.22825C21.6594 6.5545 21.7382 6.87583 21.8883 7.16549L21.1931 7.86067C18.5104 5.51304 15.1035 4.15685 11.5414 4.0186V1.36205H13.7758C13.9405 1.36205 14.0983 1.29665 14.2147 1.18025C14.3311 1.06385 14.3965 0.905973 14.3965 0.741356C14.3965 0.576739 14.3311 0.418864 14.2147 0.302462C14.0983 0.18606 13.9405 0.120667 13.7758 0.120667L8.12756 0.120667C7.96294 0.120667 7.80507 0.18606 7.68867 0.302462C7.57227 0.418864 7.50687 0.576739 7.50687 0.741356C7.50687 0.905973 7.57227 1.06385 7.68867 1.18025C7.80507 1.29665 7.96294 1.36205 8.12756 1.36205H10.3V4.0186C6.56151 4.16415 2.9988 5.64384 0.257216 8.18963C0.166461 8.2746 0.103312 8.38486 0.07595 8.50613C0.0485881 8.6274 0.058274 8.7541 0.103753 8.8698C0.149231 8.9855 0.228407 9.08488 0.331023 9.15506C0.433638 9.22525 0.554965 9.263 0.679284 9.26343H5.12342C5.2253 9.26292 5.32549 9.23734 5.41515 9.18894C7.10746 8.27967 8.99955 7.80611 10.9207 7.81101C12.6833 7.81429 14.4229 8.21265 16.0113 8.97681C17.5997 9.74096 18.9966 10.8515 20.0993 12.2267C21.202 13.6018 21.9824 15.2067 22.3831 16.9232C22.7838 18.6398 22.7946 20.4243 22.4148 22.1456C22.0349 23.8668 21.274 25.481 20.1881 26.8695C19.1021 28.2579 17.7188 29.3853 16.1397 30.1686C14.5607 30.952 12.8261 31.3714 11.0636 31.396C9.30109 31.4207 7.55548 31.0499 5.95515 30.311C5.87332 30.2737 5.78437 30.2547 5.69446 30.2551H1.08273C0.956733 30.2553 0.833773 30.2939 0.730195 30.3656C0.626617 30.4373 0.547328 30.5389 0.502865 30.6568C0.458402 30.7747 0.450872 30.9033 0.481276 31.0256C0.51168 31.1479 0.578578 31.258 0.673077 31.3414C3.71656 33.9466 7.64518 35.2819 11.6459 35.0711C15.6465 34.8603 19.413 33.1193 22.1658 30.2087C24.9186 27.298 26.447 23.4403 26.4346 19.4341C26.4222 15.4279 24.87 11.5798 22.0993 8.68618ZM23.7689 5.33446C23.9994 5.33446 24.2204 5.42601 24.3834 5.58897C24.5464 5.75194 24.6379 5.97296 24.6379 6.20343C24.6379 6.43389 24.5464 6.65491 24.3834 6.81788C24.2204 6.98084 23.9994 7.07239 23.7689 7.07239C23.5751 7.07252 23.3869 7.00688 23.2351 6.88618C23.2142 6.83931 23.1871 6.79546 23.1545 6.75584C23.1207 6.73092 23.0855 6.70811 23.0489 6.68756C22.9516 6.54489 22.8997 6.37613 22.9 6.20343C22.9 5.97296 22.9915 5.75194 23.1545 5.58897C23.3175 5.42601 23.5385 5.33446 23.7689 5.33446Z" fill="#0B8CAD"/>
</svg>
