<svg width="36" height="36" viewBox="0 0 36 36" fill="none" xmlns="http://www.w3.org/2000/svg">
<circle cx="18" cy="18" r="17.5" stroke="#999999"/>
<mask id="path-2-inside-1" fill="white">
<path d="M23 8H13C10.2386 8 8 10.2386 8 13V23C8 25.7614 10.2386 28 13 28H23C25.7614 28 28 25.7614 28 23V13C28 10.2386 25.7614 8 23 8Z"/>
<path d="M22 17.37C22.1234 18.2022 21.9813 19.0522 21.5938 19.799C21.2063 20.5458 20.5931 21.1514 19.8416 21.5297C19.0901 21.9079 18.2384 22.0396 17.4078 21.9059C16.5771 21.7723 15.8098 21.3801 15.2148 20.7852C14.6199 20.1902 14.2277 19.4229 14.0941 18.5922C13.9604 17.7616 14.0921 16.9099 14.4703 16.1584C14.8486 15.4069 15.4542 14.7937 16.201 14.4062C16.9478 14.0187 17.7978 13.8766 18.63 14C19.4789 14.1259 20.2649 14.5215 20.8717 15.1283C21.4785 15.7351 21.8741 16.5211 22 17.37Z"/>
<path d="M25 12C25 12.5523 24.5523 13 24 13C23.4477 13 23 12.5523 23 12C23 11.4477 23.4477 11 24 11C24.5523 11 25 11.4477 25 12Z"/>
</mask>
<path d="M22 17.37L21.0108 17.5167L22 17.37ZM18.63 14L18.4833 14.9892L18.63 14ZM13 9H23V7H13V9ZM23 9C25.2091 9 27 10.7909 27 13H29C29 9.68629 26.3137 7 23 7V9ZM27 13V23H29V13H27ZM27 23C27 25.2091 25.2091 27 23 27V29C26.3137 29 29 26.3137 29 23H27ZM23 27H13V29H23V27ZM13 27C10.7909 27 9 25.2091 9 23H7C7 26.3137 9.68629 29 13 29V27ZM9 23V13H7V23H9ZM9 13C9 10.7909 10.7909 9 13 9V7C9.68629 7 7 9.68629 7 13H9ZM21.0108 17.5167C21.1034 18.1409 20.9968 18.7783 20.7061 19.3384L22.4814 20.2596C22.9658 19.3261 23.1434 18.2636 22.9892 17.2233L21.0108 17.5167ZM20.7061 19.3384C20.4155 19.8985 19.9557 20.3527 19.392 20.6364L20.2912 22.4229C21.2306 21.9501 21.997 21.1931 22.4814 20.2596L20.7061 19.3384ZM19.392 20.6364C18.8284 20.9201 18.1897 21.0189 17.5667 20.9186L17.2489 22.8932C18.2872 23.0603 19.3518 22.8957 20.2912 22.4229L19.392 20.6364ZM17.5667 20.9186C16.9437 20.8184 16.3681 20.5242 15.9219 20.0781L14.5077 21.4923C15.2514 22.2359 16.2106 22.7262 17.2489 22.8932L17.5667 20.9186ZM15.9219 20.0781C15.4758 19.6319 15.1816 19.0563 15.0814 18.4333L13.1068 18.7511C13.2738 19.7894 13.7641 20.7486 14.5077 21.4923L15.9219 20.0781ZM15.0814 18.4333C14.9811 17.8103 15.0799 17.1716 15.3636 16.608L13.5771 15.7088C13.1043 16.6482 12.9397 17.7128 13.1068 18.7511L15.0814 18.4333ZM15.3636 16.608C15.6473 16.0443 16.1015 15.5845 16.6616 15.2939L15.7404 13.5186C14.8069 14.003 14.0499 14.7694 13.5771 15.7088L15.3636 16.608ZM16.6616 15.2939C17.2217 15.0032 17.8591 14.8966 18.4833 14.9892L18.7767 13.0108C17.7364 12.8566 16.6739 13.0342 15.7404 13.5186L16.6616 15.2939ZM18.4833 14.9892C19.12 15.0836 19.7095 15.3803 20.1646 15.8354L21.5788 14.4212C20.8202 13.6626 19.8378 13.1682 18.7767 13.0108L18.4833 14.9892ZM20.1646 15.8354C20.6197 16.2905 20.9164 16.88 21.0108 17.5167L22.9892 17.2233C22.8318 16.1622 22.3374 15.1798 21.5788 14.4212L20.1646 15.8354ZM24 12V14C25.1046 14 26 13.1046 26 12H24ZM24 12H22C22 13.1046 22.8954 14 24 14V12ZM24 12V10C22.8954 10 22 10.8954 22 12H24ZM24 12H26C26 10.8954 25.1046 10 24 10V12Z" fill="#171738" mask="url(#path-2-inside-1)"/>
</svg>
