<svg width="160" height="90" viewBox="0 0 160 90" fill="none" xmlns="http://www.w3.org/2000/svg">
<rect width="160" height="90" rx="16" fill="white"/>
<g clip-path="url(#clip0)">
<path d="M52.5499 48.6282C50.5464 56.6654 42.4075 61.5544 34.3703 59.551C26.3374 57.5476 21.4469 49.4082 23.4513 41.3729C25.4538 33.3357 33.5922 28.4452 41.6266 30.4487C49.6628 32.4521 54.5528 40.5924 52.5494 48.6282H52.5499Z" fill="#F7931A"/>
<path d="M44.6136 42.863C44.9122 40.867 43.3926 39.7941 41.3146 39.0783L41.9886 36.3745L40.3429 35.9644L39.6866 38.5969C39.2483 38.4892 38.8089 38.3857 38.3685 38.2866L39.0294 35.6367L37.3841 35.2266L36.7101 37.9294C36.3519 37.8478 36.0004 37.7672 35.6591 37.6823L35.661 37.6739L33.3913 37.1072L32.9535 38.865C32.9535 38.865 34.1746 39.1448 34.1488 39.1622C34.8154 39.3286 34.9358 39.7697 34.9157 40.1194L34.1479 43.1995C34.1938 43.2112 34.2533 43.2286 34.319 43.2544L34.1451 43.2112L33.0688 47.5261C32.9873 47.7286 32.7805 48.0323 32.3141 47.917C32.331 47.9409 31.1183 47.6184 31.1183 47.6184L30.3013 49.5028L32.443 50.0372C32.8415 50.1366 33.2319 50.2411 33.6163 50.3395L32.9352 53.0742L34.5791 53.4844L35.2532 50.7783C35.7022 50.9006 36.1382 51.0127 36.5647 51.1191L35.8926 53.812L37.5379 54.2222L38.2194 51.4927C41.0258 52.0237 43.1361 51.8095 44.0244 49.2717C44.7402 47.228 43.9888 46.0491 42.5122 45.2798C43.5876 45.0314 44.3976 44.3241 44.6136 42.863ZM40.8529 48.1355C40.3443 50.1792 36.9032 49.0748 35.7876 48.7973L36.6913 45.1744C37.8069 45.4533 41.3844 46.0045 40.8529 48.1355ZM41.3619 42.8339C40.8979 44.6925 38.0338 43.748 37.1047 43.5164L37.9241 40.2305C38.8532 40.462 41.8452 40.8942 41.3619 42.8334V42.8339Z" fill="white"/>
<path d="M65.375 36.25H73.525C74.1917 36.25 74.7417 36.425 75.175 36.775C75.625 37.125 75.9583 37.575 76.175 38.125C76.4083 38.675 76.525 39.2583 76.525 39.875C76.525 40.9417 76.2083 41.9417 75.575 42.875C74.9417 43.7917 74.1167 44.4667 73.1 44.9C73.85 45.15 74.4167 45.6 74.8 46.25C75.2 46.9 75.4 47.65 75.4 48.5C75.4 49.2833 75.2333 50.0167 74.9 50.7C74.5833 51.3667 74.1417 51.95 73.575 52.45C73.025 52.9333 72.4 53.3167 71.7 53.6C71.0167 53.8667 70.3 54 69.55 54H61.6L65.375 36.25ZM71.125 44.325C71.7417 44.325 72.325 44.1417 72.875 43.775C73.425 43.3917 73.8667 42.9 74.2 42.3C74.55 41.6833 74.725 41.0333 74.725 40.35C74.725 39.6333 74.5417 39.025 74.175 38.525C73.8083 38.025 73.3 37.775 72.65 37.775H66.775L65.375 44.325H71.125ZM69.875 52.475C70.5083 52.475 71.1167 52.2833 71.7 51.9C72.2833 51.5167 72.7583 51.025 73.125 50.425C73.4917 49.8083 73.675 49.1583 73.675 48.475C73.675 47.7417 73.475 47.1083 73.075 46.575C72.6917 46.025 72.1583 45.75 71.475 45.75H65.075L63.65 52.475H69.875ZM81.2656 35.75H82.9656L82.4406 38.25H80.7406L81.2656 35.75ZM80.1406 40.975H81.8406L79.0906 54H77.3906L80.1406 40.975ZM83.8379 52.275C83.8379 52.0917 83.8629 51.8833 83.9129 51.65L85.8879 42.325H84.1629L84.4629 40.975H86.1629L87.1129 36.575H88.8129L87.8629 40.975H90.7129L90.4129 42.325H87.5879L85.7879 50.8C85.7046 51.1667 85.6629 51.4 85.6629 51.5C85.6629 51.8667 85.7796 52.1417 86.0129 52.325C86.2462 52.4917 86.5296 52.575 86.8629 52.575C87.3129 52.575 87.7296 52.5 88.1129 52.35C88.4962 52.1833 88.7462 52.0667 88.8629 52L89.0129 53.375C88.7962 53.525 88.4046 53.6917 87.8379 53.875C87.2879 54.0583 86.6796 54.15 86.0129 54.15C85.3962 54.15 84.8796 54 84.4629 53.7C84.0462 53.3833 83.8379 52.9083 83.8379 52.275ZM96.2254 54.25C95.1754 54.25 94.2754 54 93.5254 53.5C92.7754 53 92.2004 52.3333 91.8004 51.5C91.4171 50.6667 91.2254 49.7417 91.2254 48.725C91.2254 47.675 91.4254 46.675 91.8254 45.725C92.2254 44.7583 92.7754 43.9083 93.4754 43.175C94.1921 42.425 95.0171 41.8333 95.9504 41.4C96.9004 40.9667 97.9171 40.75 99.0004 40.75C100.2 40.75 101.175 41.0333 101.925 41.6C102.692 42.15 103.192 42.9 103.425 43.85L101.675 44.375C101.475 43.6917 101.117 43.1667 100.6 42.8C100.084 42.4333 99.4671 42.25 98.7504 42.25C98.0171 42.25 97.3004 42.4167 96.6004 42.75C95.9171 43.0667 95.3004 43.5167 94.7504 44.1C94.2004 44.6667 93.7671 45.3333 93.4504 46.1C93.1337 46.85 92.9754 47.65 92.9754 48.5C92.9754 49.3167 93.1171 50.05 93.4004 50.7C93.7004 51.3333 94.1087 51.8333 94.6254 52.2C95.1421 52.5667 95.7421 52.75 96.4254 52.75C96.9587 52.75 97.4921 52.65 98.0254 52.45C98.5754 52.25 99.0671 51.9833 99.5004 51.65C99.9337 51.3 100.25 50.925 100.45 50.525L102.025 51.025C101.659 51.6417 101.167 52.2 100.55 52.7C99.9504 53.1833 99.2754 53.5667 98.5254 53.85C97.7754 54.1167 97.0087 54.25 96.2254 54.25ZM109.535 54.25C108.402 54.25 107.46 54.0083 106.71 53.525C105.96 53.025 105.402 52.3667 105.035 51.55C104.668 50.7167 104.485 49.7917 104.485 48.775C104.485 47.675 104.685 46.6417 105.085 45.675C105.502 44.7083 106.06 43.8583 106.76 43.125C107.46 42.375 108.268 41.7917 109.185 41.375C110.102 40.9583 111.077 40.75 112.11 40.75C113.227 40.75 114.16 41 114.91 41.5C115.66 42 116.218 42.6667 116.585 43.5C116.968 44.3167 117.16 45.2333 117.16 46.25C117.16 47.35 116.96 48.3833 116.56 49.35C116.16 50.3167 115.61 51.1667 114.91 51.9C114.21 52.6333 113.393 53.2083 112.46 53.625C111.543 54.0417 110.568 54.25 109.535 54.25ZM109.835 52.75C110.785 52.75 111.685 52.4833 112.535 51.95C113.385 51.4 114.077 50.6583 114.61 49.725C115.143 48.775 115.41 47.7 115.41 46.5C115.41 45.3 115.102 44.2917 114.485 43.475C113.885 42.6583 112.993 42.25 111.81 42.25C111.11 42.25 110.427 42.4083 109.76 42.725C109.093 43.0417 108.493 43.4917 107.96 44.075C107.443 44.6417 107.027 45.3083 106.71 46.075C106.393 46.825 106.235 47.65 106.235 48.55C106.235 49.7667 106.535 50.775 107.135 51.575C107.752 52.3583 108.652 52.75 109.835 52.75ZM122.466 35.75H124.166L123.641 38.25H121.941L122.466 35.75ZM121.341 40.975H123.041L120.291 54H118.591L121.341 40.975ZM126.813 40.975H128.388L127.738 43.925C128.438 42.975 129.322 42.2083 130.388 41.625C131.472 41.0417 132.555 40.75 133.638 40.75C134.655 40.75 135.38 41.025 135.813 41.575C136.247 42.125 136.463 42.8833 136.463 43.85C136.463 44.2167 136.43 44.6167 136.363 45.05C136.313 45.4667 136.238 45.9083 136.138 46.375L134.538 54H132.838L134.388 46.725C134.555 45.9083 134.638 45.2 134.638 44.6C134.638 43.0667 133.988 42.3 132.688 42.3C132.072 42.3 131.422 42.4667 130.738 42.8C130.072 43.1167 129.438 43.5583 128.838 44.125C128.255 44.675 127.788 45.3083 127.438 46.025L125.763 54H124.063L126.813 40.975Z" fill="#121212"/>
</g>
<defs>
<clipPath id="clip0">
<rect width="115" height="30" fill="white" transform="translate(23 30)"/>
</clipPath>
</defs>
</svg>
