<svg width="160" height="90" viewBox="0 0 160 90" fill="none" xmlns="http://www.w3.org/2000/svg">
<rect width="160" height="90" rx="16" fill="white"/>
<g clip-path="url(#clip0)">
<path d="M21.9072 30L21.7061 30.6835V50.5157L21.9072 50.7164L31.1131 45.2748L21.9072 30Z" fill="#343434"/>
<path d="M21.9072 30L12.7013 45.2748L21.9072 50.7165V41.0905V30Z" fill="#8C8C8C"/>
<path d="M21.9072 52.4596L21.7939 52.5977V59.6623L21.9072 59.9933L31.1186 47.0208L21.9072 52.4596Z" fill="#3C3C3B"/>
<path d="M21.9072 59.9932V52.4594L12.7013 47.0205L21.9072 59.9932Z" fill="#8C8C8C"/>
<path d="M21.9072 50.7164L31.113 45.2749L21.9072 41.0906V50.7164Z" fill="#141414"/>
<path d="M12.7013 45.2748L21.9071 50.7164V41.0905L12.7013 45.2748Z" fill="#393939"/>
</g>
<path d="M49.375 36.25H60.5L60.175 37.8H50.775L49.4 44.2H57.6L57.3 45.675H49.1L47.65 52.45H57.275L56.95 54H45.6L49.375 36.25ZM60.8275 52.275C60.8275 52.0917 60.8525 51.8833 60.9025 51.65L62.8775 42.325H61.1525L61.4525 40.975H63.1525L64.1025 36.575H65.8025L64.8525 40.975H67.7025L67.4025 42.325H64.5775L62.7775 50.8C62.6942 51.1667 62.6525 51.4 62.6525 51.5C62.6525 51.8667 62.7692 52.1417 63.0025 52.325C63.2359 52.4917 63.5192 52.575 63.8525 52.575C64.3025 52.575 64.7192 52.5 65.1025 52.35C65.4859 52.1833 65.7359 52.0667 65.8525 52L66.0025 53.375C65.7859 53.525 65.3942 53.6917 64.8275 53.875C64.2775 54.0583 63.6692 54.15 63.0025 54.15C62.3859 54.15 61.8692 54 61.4525 53.7C61.0359 53.3833 60.8275 52.9083 60.8275 52.275ZM71.9098 35.75H73.6098L71.8598 43.925C72.5598 42.9583 73.4014 42.1917 74.3848 41.625C75.3848 41.0417 76.3931 40.75 77.4098 40.75C78.4598 40.75 79.2181 41.05 79.6848 41.65C80.1514 42.25 80.3848 43.0583 80.3848 44.075C80.3848 44.4083 80.3598 44.775 80.3098 45.175C80.2764 45.5583 80.2098 45.9583 80.1098 46.375L78.5098 54H76.8098L78.3598 46.725C78.4264 46.3583 78.4764 46.0167 78.5098 45.7C78.5598 45.3833 78.5848 45.0917 78.5848 44.825C78.5848 43.1417 77.8764 42.3 76.4598 42.3C75.8764 42.3 75.2598 42.4667 74.6098 42.8C73.9598 43.1167 73.3514 43.5583 72.7848 44.125C72.2181 44.675 71.7598 45.3083 71.4098 46.025L69.7348 54H68.0348L71.9098 35.75ZM87.6496 54.25C86.5829 54.25 85.6746 54.0083 84.9246 53.525C84.1746 53.025 83.5996 52.3583 83.1996 51.525C82.7996 50.6917 82.5913 49.7583 82.5746 48.725C82.5746 47.7083 82.7579 46.725 83.1246 45.775C83.5079 44.8083 84.0413 43.95 84.7246 43.2C85.4246 42.45 86.2413 41.8583 87.1746 41.425C88.1079 40.975 89.1246 40.75 90.2246 40.75C91.4579 40.75 92.4746 41.05 93.2746 41.65C94.0913 42.2333 94.5079 43.1083 94.5246 44.275C94.5413 45.6083 93.9746 46.5833 92.8246 47.2C91.6913 47.8167 89.9496 48.125 87.5996 48.125C87.1496 48.125 86.6579 48.1167 86.1246 48.1C85.5913 48.0833 84.9913 48.05 84.3246 48C84.3079 48.2167 84.2996 48.4333 84.2996 48.65C84.3163 49.4333 84.4579 50.15 84.7246 50.8C84.9913 51.45 85.3913 51.975 85.9246 52.375C86.4579 52.7583 87.1329 52.95 87.9496 52.95C88.8163 52.95 89.6246 52.7333 90.3746 52.3C91.1413 51.85 91.7413 51.2583 92.1746 50.525L93.5746 50.95C92.9913 51.9167 92.1663 52.7083 91.0996 53.325C90.0496 53.9417 88.8996 54.25 87.6496 54.25ZM90.0996 42.075C89.1663 42.075 88.3246 42.2917 87.5746 42.725C86.8246 43.1417 86.1829 43.7083 85.6496 44.425C85.1329 45.1417 84.7663 45.9333 84.5496 46.8C85.1996 46.8333 85.7663 46.8583 86.2496 46.875C86.7496 46.8917 87.2246 46.9 87.6746 46.9C89.6579 46.9 91.0413 46.6667 91.8246 46.2C92.6079 45.7167 92.9913 45.075 92.9746 44.275C92.9579 43.5083 92.6663 42.95 92.0996 42.6C91.5496 42.25 90.8829 42.075 90.0996 42.075ZM98.4285 40.975H100.029L99.3535 44.1C100.004 43.1667 100.745 42.4167 101.579 41.85C102.412 41.2833 103.245 40.9833 104.079 40.95C104.195 40.95 104.304 40.9583 104.404 40.975C104.504 40.975 104.595 40.9833 104.679 41L104.354 42.475C103.27 42.5083 102.254 42.825 101.304 43.425C100.37 44.025 99.6285 44.85 99.0785 45.9L97.3785 54H95.6785L98.4285 40.975ZM109.532 54.25C108.465 54.25 107.557 54.0083 106.807 53.525C106.057 53.025 105.482 52.3583 105.082 51.525C104.682 50.6917 104.473 49.7583 104.457 48.725C104.457 47.7083 104.64 46.725 105.007 45.775C105.39 44.8083 105.923 43.95 106.607 43.2C107.307 42.45 108.123 41.8583 109.057 41.425C109.99 40.975 111.007 40.75 112.107 40.75C113.34 40.75 114.357 41.05 115.157 41.65C115.973 42.2333 116.39 43.1083 116.407 44.275C116.423 45.6083 115.857 46.5833 114.707 47.2C113.573 47.8167 111.832 48.125 109.482 48.125C109.032 48.125 108.54 48.1167 108.007 48.1C107.473 48.0833 106.873 48.05 106.207 48C106.19 48.2167 106.182 48.4333 106.182 48.65C106.198 49.4333 106.34 50.15 106.607 50.8C106.873 51.45 107.273 51.975 107.807 52.375C108.34 52.7583 109.015 52.95 109.832 52.95C110.698 52.95 111.507 52.7333 112.257 52.3C113.023 51.85 113.623 51.2583 114.057 50.525L115.457 50.95C114.873 51.9167 114.048 52.7083 112.982 53.325C111.932 53.9417 110.782 54.25 109.532 54.25ZM111.982 42.075C111.048 42.075 110.207 42.2917 109.457 42.725C108.707 43.1417 108.065 43.7083 107.532 44.425C107.015 45.1417 106.648 45.9333 106.432 46.8C107.082 46.8333 107.648 46.8583 108.132 46.875C108.632 46.8917 109.107 46.9 109.557 46.9C111.54 46.9 112.923 46.6667 113.707 46.2C114.49 45.7167 114.873 45.075 114.857 44.275C114.84 43.5083 114.548 42.95 113.982 42.6C113.432 42.25 112.765 42.075 111.982 42.075ZM121.311 54.25C119.277 54.25 118.261 53.1333 118.261 50.9C118.261 50.2667 118.352 49.5083 118.536 48.625L120.186 40.975H121.861L120.311 48.325C120.144 49.075 120.061 49.725 120.061 50.275C120.061 51.925 120.777 52.75 122.211 52.75C123.144 52.75 124.086 52.425 125.036 51.775C125.986 51.125 126.761 50.2583 127.361 49.175L129.111 40.975H130.811L128.536 51.6C128.519 51.7 128.502 51.7917 128.486 51.875C128.469 51.9583 128.461 52.025 128.461 52.075C128.461 52.3417 128.619 52.4833 128.936 52.5L128.611 54C128.461 54.0167 128.327 54.025 128.211 54.025C128.111 54.0417 128.011 54.05 127.911 54.05C127.194 54.0167 126.836 53.6917 126.836 53.075C126.836 52.9583 126.852 52.775 126.886 52.525C126.919 52.275 127.019 51.7833 127.186 51.05C126.419 52.0667 125.511 52.8583 124.461 53.425C123.427 53.975 122.377 54.25 121.311 54.25ZM134.694 40.975H136.269L135.619 43.925C136.319 42.9417 137.144 42.1667 138.094 41.6C139.044 41.0333 140.002 40.75 140.969 40.75C141.936 40.75 142.677 41.05 143.194 41.65C143.711 42.2333 143.961 43.0667 143.944 44.15C144.677 43.05 145.519 42.2083 146.469 41.625C147.436 41.0417 148.419 40.75 149.419 40.75C150.452 40.75 151.194 41.0417 151.644 41.625C152.094 42.1917 152.319 42.9667 152.319 43.95C152.319 44.6667 152.219 45.475 152.019 46.375L150.394 54H148.694L150.219 46.725C150.386 45.9417 150.469 45.2667 150.469 44.7C150.469 43.1 149.811 42.3 148.494 42.3C147.577 42.3 146.677 42.65 145.794 43.35C144.927 44.05 144.227 44.95 143.694 46.05L142.019 54H140.319L141.844 46.725C142.027 45.925 142.119 45.2333 142.119 44.65C142.119 43.0833 141.461 42.3 140.144 42.3C139.227 42.3 138.327 42.6417 137.444 43.325C136.577 44.0083 135.869 44.9083 135.319 46.025L133.644 54H131.944L134.694 40.975Z" fill="#121212"/>
<defs>
<clipPath id="clip0">
<rect width="18.42" height="30" fill="white" transform="translate(12.7 30)"/>
</clipPath>
</defs>
</svg>
