<svg width="130" height="30" viewBox="0 0 130 30" fill="none" xmlns="http://www.w3.org/2000/svg">
<g clip-path="url(#clip0)">
<path d="M9.17471 12.6056L15.0013 6.78146L20.8302 12.6104L24.2185 9.21965L15.0013 0L5.78398 9.21728L9.17471 12.6056Z" fill="#F3BA2F"/>
<path d="M-0.00120544 15.0005L3.38828 11.611L6.77777 15.0005L3.38828 18.39L-0.00120544 15.0005Z" fill="#F3BA2F"/>
<path d="M9.17472 17.3945L15.0013 23.221L20.8302 17.3921L24.2209 20.7781L24.2185 20.7804L15.0013 30.0001L5.78399 20.7852L5.77925 20.7804L9.17472 17.3945Z" fill="#F3BA2F"/>
<path d="M23.219 15.0012L26.6085 11.6117L29.9979 15.0012L26.6085 18.3907L23.219 15.0012Z" fill="#F3BA2F"/>
<path d="M18.4393 14.9988L15.0012 11.5583L12.4587 14.1008L12.1649 14.3922L11.5631 14.9941L11.5583 14.9988L11.5631 15.0059L15.0012 18.4417L18.4393 15.0012L18.4417 14.9988H18.4393Z" fill="#F3BA2F"/>
<path d="M42.375 6.25H50.525C51.1917 6.25 51.7417 6.425 52.175 6.775C52.625 7.125 52.9583 7.575 53.175 8.125C53.4083 8.675 53.525 9.25833 53.525 9.875C53.525 10.9417 53.2083 11.9417 52.575 12.875C51.9417 13.7917 51.1167 14.4667 50.1 14.9C50.85 15.15 51.4167 15.6 51.8 16.25C52.2 16.9 52.4 17.65 52.4 18.5C52.4 19.2833 52.2333 20.0167 51.9 20.7C51.5833 21.3667 51.1417 21.95 50.575 22.45C50.025 22.9333 49.4 23.3167 48.7 23.6C48.0167 23.8667 47.3 24 46.55 24H38.6L42.375 6.25ZM48.125 14.325C48.7417 14.325 49.325 14.1417 49.875 13.775C50.425 13.3917 50.8667 12.9 51.2 12.3C51.55 11.6833 51.725 11.0333 51.725 10.35C51.725 9.63333 51.5417 9.025 51.175 8.525C50.8083 8.025 50.3 7.775 49.65 7.775H43.775L42.375 14.325H48.125ZM46.875 22.475C47.5083 22.475 48.1167 22.2833 48.7 21.9C49.2833 21.5167 49.7583 21.025 50.125 20.425C50.4917 19.8083 50.675 19.1583 50.675 18.475C50.675 17.7417 50.475 17.1083 50.075 16.575C49.6917 16.025 49.1583 15.75 48.475 15.75H42.075L40.65 22.475H46.875ZM58.2656 5.75H59.9656L59.4406 8.25H57.7406L58.2656 5.75ZM57.1406 10.975H58.8406L56.0906 24H54.3906L57.1406 10.975ZM62.6129 10.975H64.1879L63.5379 13.925C64.2379 12.975 65.1212 12.2083 66.1879 11.625C67.2712 11.0417 68.3546 10.75 69.4379 10.75C70.4546 10.75 71.1796 11.025 71.6129 11.575C72.0462 12.125 72.2629 12.8833 72.2629 13.85C72.2629 14.2167 72.2296 14.6167 72.1629 15.05C72.1129 15.4667 72.0379 15.9083 71.9379 16.375L70.3379 24H68.6379L70.1879 16.725C70.3546 15.9083 70.4379 15.2 70.4379 14.6C70.4379 13.0667 69.7879 12.3 68.4879 12.3C67.8712 12.3 67.2212 12.4667 66.5379 12.8C65.8712 13.1167 65.2379 13.5583 64.6379 14.125C64.0546 14.675 63.5879 15.3083 63.2379 16.025L61.5629 24H59.8629L62.6129 10.975ZM79.0027 24.25C78.0361 24.25 77.2027 24 76.5027 23.5C75.8194 23 75.2944 22.3333 74.9277 21.5C74.5611 20.6667 74.3777 19.7667 74.3777 18.8C74.3777 17.7667 74.5694 16.775 74.9527 15.825C75.3527 14.8583 75.8861 14 76.5527 13.25C77.2361 12.4833 78.0111 11.875 78.8777 11.425C79.7444 10.975 80.6527 10.75 81.6027 10.75C82.6527 10.75 83.5194 11.0417 84.2027 11.625C84.8861 12.1917 85.3694 12.8833 85.6527 13.7L86.2527 10.975H87.9527L85.6527 21.775C85.6361 21.825 85.6194 21.8833 85.6027 21.95C85.6027 22 85.6027 22.05 85.6027 22.1C85.6027 22.35 85.7611 22.4833 86.0777 22.5L85.7527 24C85.6194 24.0167 85.4944 24.0333 85.3777 24.05C85.2777 24.0667 85.1777 24.075 85.0777 24.075C84.7111 24.0583 84.4277 23.9583 84.2277 23.775C84.0277 23.5917 83.9277 23.3583 83.9277 23.075C83.9277 22.9417 83.9444 22.7667 83.9777 22.55C84.0277 22.3333 84.1027 21.975 84.2027 21.475C83.5361 22.325 82.7277 23 81.7777 23.5C80.8444 24 79.9194 24.25 79.0027 24.25ZM79.7027 22.75C80.2527 22.75 80.8527 22.6083 81.5027 22.325C82.1527 22.025 82.7444 21.6333 83.2777 21.15C83.8277 20.65 84.2111 20.1083 84.4277 19.525L85.2527 15.5C85.1861 14.9167 84.9861 14.375 84.6527 13.875C84.3194 13.375 83.8944 12.9833 83.3777 12.7C82.8777 12.4 82.3361 12.25 81.7527 12.25C81.0027 12.25 80.2944 12.4333 79.6277 12.8C78.9611 13.1667 78.3611 13.6583 77.8277 14.275C77.3111 14.875 76.9027 15.55 76.6027 16.3C76.3027 17.05 76.1527 17.8 76.1527 18.55C76.1527 19.3167 76.3027 20.025 76.6027 20.675C76.9027 21.3083 77.3111 21.8167 77.8277 22.2C78.3611 22.5667 78.9861 22.75 79.7027 22.75ZM91.8191 10.975H93.3941L92.7441 13.925C93.4441 12.975 94.3275 12.2083 95.3941 11.625C96.4775 11.0417 97.5608 10.75 98.6441 10.75C99.6608 10.75 100.386 11.025 100.819 11.575C101.252 12.125 101.469 12.8833 101.469 13.85C101.469 14.2167 101.436 14.6167 101.369 15.05C101.319 15.4667 101.244 15.9083 101.144 16.375L99.5441 24H97.8441L99.3941 16.725C99.5608 15.9083 99.6441 15.2 99.6441 14.6C99.6441 13.0667 98.9941 12.3 97.6941 12.3C97.0775 12.3 96.4275 12.4667 95.7441 12.8C95.0775 13.1167 94.4441 13.5583 93.8441 14.125C93.2608 14.675 92.7941 15.3083 92.4441 16.025L90.7691 24H89.0691L91.8191 10.975ZM108.584 24.25C107.534 24.25 106.634 24 105.884 23.5C105.134 23 104.559 22.3333 104.159 21.5C103.776 20.6667 103.584 19.7417 103.584 18.725C103.584 17.675 103.784 16.675 104.184 15.725C104.584 14.7583 105.134 13.9083 105.834 13.175C106.551 12.425 107.376 11.8333 108.309 11.4C109.259 10.9667 110.276 10.75 111.359 10.75C112.559 10.75 113.534 11.0333 114.284 11.6C115.051 12.15 115.551 12.9 115.784 13.85L114.034 14.375C113.834 13.6917 113.476 13.1667 112.959 12.8C112.442 12.4333 111.826 12.25 111.109 12.25C110.376 12.25 109.659 12.4167 108.959 12.75C108.276 13.0667 107.659 13.5167 107.109 14.1C106.559 14.6667 106.126 15.3333 105.809 16.1C105.492 16.85 105.334 17.65 105.334 18.5C105.334 19.3167 105.476 20.05 105.759 20.7C106.059 21.3333 106.467 21.8333 106.984 22.2C107.501 22.5667 108.101 22.75 108.784 22.75C109.317 22.75 109.851 22.65 110.384 22.45C110.934 22.25 111.426 21.9833 111.859 21.65C112.292 21.3 112.609 20.925 112.809 20.525L114.384 21.025C114.017 21.6417 113.526 22.2 112.909 22.7C112.309 23.1833 111.634 23.5667 110.884 23.85C110.134 24.1167 109.367 24.25 108.584 24.25ZM121.969 24.25C120.902 24.25 119.994 24.0083 119.244 23.525C118.494 23.025 117.919 22.3583 117.519 21.525C117.119 20.6917 116.91 19.7583 116.894 18.725C116.894 17.7083 117.077 16.725 117.444 15.775C117.827 14.8083 118.36 13.95 119.044 13.2C119.744 12.45 120.56 11.8583 121.494 11.425C122.427 10.975 123.444 10.75 124.544 10.75C125.777 10.75 126.794 11.05 127.594 11.65C128.41 12.2333 128.827 13.1083 128.844 14.275C128.86 15.6083 128.294 16.5833 127.144 17.2C126.01 17.8167 124.269 18.125 121.919 18.125C121.469 18.125 120.977 18.1167 120.444 18.1C119.91 18.0833 119.31 18.05 118.644 18C118.627 18.2167 118.619 18.4333 118.619 18.65C118.635 19.4333 118.777 20.15 119.044 20.8C119.31 21.45 119.71 21.975 120.244 22.375C120.777 22.7583 121.452 22.95 122.269 22.95C123.135 22.95 123.944 22.7333 124.694 22.3C125.46 21.85 126.06 21.2583 126.494 20.525L127.894 20.95C127.31 21.9167 126.485 22.7083 125.419 23.325C124.369 23.9417 123.219 24.25 121.969 24.25ZM124.419 12.075C123.485 12.075 122.644 12.2917 121.894 12.725C121.144 13.1417 120.502 13.7083 119.969 14.425C119.452 15.1417 119.085 15.9333 118.869 16.8C119.519 16.8333 120.085 16.8583 120.569 16.875C121.069 16.8917 121.544 16.9 121.994 16.9C123.977 16.9 125.36 16.6667 126.144 16.2C126.927 15.7167 127.31 15.075 127.294 14.275C127.277 13.5083 126.985 12.95 126.419 12.6C125.869 12.25 125.202 12.075 124.419 12.075Z" fill="#121212"/>
</g>
<defs>
<clipPath id="clip0">
<rect width="130" height="30" fill="white"/>
</clipPath>
</defs>
</svg>
