<svg width="176" height="90" viewBox="0 0 176 90" fill="none" xmlns="http://www.w3.org/2000/svg">
<rect width="183" height="90" rx="16" fill="white"/>
<path d="M42.375 36.25H50.525C51.1917 36.25 51.7417 36.425 52.175 36.775C52.625 37.125 52.9583 37.575 53.175 38.125C53.4083 38.675 53.525 39.2583 53.525 39.875C53.525 40.9417 53.2083 41.9417 52.575 42.875C51.9417 43.7917 51.1167 44.4667 50.1 44.9C50.85 45.15 51.4167 45.6 51.8 46.25C52.2 46.9 52.4 47.65 52.4 48.5C52.4 49.2833 52.2333 50.0167 51.9 50.7C51.5833 51.3667 51.1417 51.95 50.575 52.45C50.025 52.9333 49.4 53.3167 48.7 53.6C48.0167 53.8667 47.3 54 46.55 54H38.6L42.375 36.25ZM48.125 44.325C48.7417 44.325 49.325 44.1417 49.875 43.775C50.425 43.3917 50.8667 42.9 51.2 42.3C51.55 41.6833 51.725 41.0333 51.725 40.35C51.725 39.6333 51.5417 39.025 51.175 38.525C50.8083 38.025 50.3 37.775 49.65 37.775H43.775L42.375 44.325H48.125ZM46.875 52.475C47.5083 52.475 48.1167 52.2833 48.7 51.9C49.2833 51.5167 49.7583 51.025 50.125 50.425C50.4917 49.8083 50.675 49.1583 50.675 48.475C50.675 47.7417 50.475 47.1083 50.075 46.575C49.6917 46.025 49.1583 45.75 48.475 45.75H42.075L40.65 52.475H46.875ZM58.2656 35.75H59.9656L59.4406 38.25H57.7406L58.2656 35.75ZM57.1406 40.975H58.8406L56.0906 54H54.3906L57.1406 40.975ZM60.8379 52.275C60.8379 52.0917 60.8629 51.8833 60.9129 51.65L62.8879 42.325H61.1629L61.4629 40.975H63.1629L64.1129 36.575H65.8129L64.8629 40.975H67.7129L67.4129 42.325H64.5879L62.7879 50.8C62.7046 51.1667 62.6629 51.4 62.6629 51.5C62.6629 51.8667 62.7796 52.1417 63.0129 52.325C63.2462 52.4917 63.5296 52.575 63.8629 52.575C64.3129 52.575 64.7296 52.5 65.1129 52.35C65.4962 52.1833 65.7462 52.0667 65.8629 52L66.0129 53.375C65.7962 53.525 65.4046 53.6917 64.8379 53.875C64.2879 54.0583 63.6796 54.15 63.0129 54.15C62.3962 54.15 61.8796 54 61.4629 53.7C61.0462 53.3833 60.8379 52.9083 60.8379 52.275ZM73.2254 54.25C72.1754 54.25 71.2754 54 70.5254 53.5C69.7754 53 69.2004 52.3333 68.8004 51.5C68.4171 50.6667 68.2254 49.7417 68.2254 48.725C68.2254 47.675 68.4254 46.675 68.8254 45.725C69.2254 44.7583 69.7754 43.9083 70.4754 43.175C71.1921 42.425 72.0171 41.8333 72.9504 41.4C73.9004 40.9667 74.9171 40.75 76.0004 40.75C77.2004 40.75 78.1754 41.0333 78.9254 41.6C79.6921 42.15 80.1921 42.9 80.4254 43.85L78.6754 44.375C78.4754 43.6917 78.1171 43.1667 77.6004 42.8C77.0837 42.4333 76.4671 42.25 75.7504 42.25C75.0171 42.25 74.3004 42.4167 73.6004 42.75C72.9171 43.0667 72.3004 43.5167 71.7504 44.1C71.2004 44.6667 70.7671 45.3333 70.4504 46.1C70.1337 46.85 69.9754 47.65 69.9754 48.5C69.9754 49.3167 70.1171 50.05 70.4004 50.7C70.7004 51.3333 71.1087 51.8333 71.6254 52.2C72.1421 52.5667 72.7421 52.75 73.4254 52.75C73.9587 52.75 74.4921 52.65 75.0254 52.45C75.5754 52.25 76.0671 51.9833 76.5004 51.65C76.9337 51.3 77.2504 50.925 77.4504 50.525L79.0254 51.025C78.6587 51.6417 78.1671 52.2 77.5504 52.7C76.9504 53.1833 76.2754 53.5667 75.5254 53.85C74.7754 54.1167 74.0087 54.25 73.2254 54.25ZM86.5352 54.25C85.4018 54.25 84.4602 54.0083 83.7102 53.525C82.9602 53.025 82.4018 52.3667 82.0352 51.55C81.6685 50.7167 81.4852 49.7917 81.4852 48.775C81.4852 47.675 81.6852 46.6417 82.0852 45.675C82.5018 44.7083 83.0602 43.8583 83.7602 43.125C84.4602 42.375 85.2685 41.7917 86.1852 41.375C87.1018 40.9583 88.0768 40.75 89.1102 40.75C90.2268 40.75 91.1602 41 91.9102 41.5C92.6602 42 93.2185 42.6667 93.5852 43.5C93.9685 44.3167 94.1602 45.2333 94.1602 46.25C94.1602 47.35 93.9602 48.3833 93.5602 49.35C93.1602 50.3167 92.6102 51.1667 91.9102 51.9C91.2102 52.6333 90.3935 53.2083 89.4602 53.625C88.5435 54.0417 87.5685 54.25 86.5352 54.25ZM86.8352 52.75C87.7852 52.75 88.6852 52.4833 89.5352 51.95C90.3852 51.4 91.0768 50.6583 91.6102 49.725C92.1435 48.775 92.4102 47.7 92.4102 46.5C92.4102 45.3 92.1018 44.2917 91.4852 43.475C90.8852 42.6583 89.9935 42.25 88.8102 42.25C88.1102 42.25 87.4268 42.4083 86.7602 42.725C86.0935 43.0417 85.4935 43.4917 84.9602 44.075C84.4435 44.6417 84.0268 45.3083 83.7102 46.075C83.3935 46.825 83.2352 47.65 83.2352 48.55C83.2352 49.7667 83.5352 50.775 84.1352 51.575C84.7518 52.3583 85.6518 52.75 86.8352 52.75ZM99.4662 35.75H101.166L100.641 38.25H98.9412L99.4662 35.75ZM98.3412 40.975H100.041L97.2912 54H95.5912L98.3412 40.975ZM103.813 40.975H105.388L104.738 43.925C105.438 42.975 106.322 42.2083 107.388 41.625C108.472 41.0417 109.555 40.75 110.638 40.75C111.655 40.75 112.38 41.025 112.813 41.575C113.247 42.125 113.463 42.8833 113.463 43.85C113.463 44.2167 113.43 44.6167 113.363 45.05C113.313 45.4667 113.238 45.9083 113.138 46.375L111.538 54H109.838L111.388 46.725C111.555 45.9083 111.638 45.2 111.638 44.6C111.638 43.0667 110.988 42.3 109.688 42.3C109.072 42.3 108.422 42.4667 107.738 42.8C107.072 43.1167 106.438 43.5583 105.838 44.125C105.255 44.675 104.788 45.3083 104.438 46.025L102.763 54H101.063L103.813 40.975ZM126.954 54.25C125.904 54.25 125.004 54 124.254 53.5C123.504 53 122.929 52.3333 122.529 51.5C122.146 50.6667 121.954 49.7417 121.954 48.725C121.954 47.675 122.154 46.675 122.554 45.725C122.954 44.7583 123.504 43.9083 124.204 43.175C124.921 42.425 125.746 41.8333 126.679 41.4C127.629 40.9667 128.646 40.75 129.729 40.75C130.929 40.75 131.904 41.0333 132.654 41.6C133.421 42.15 133.921 42.9 134.154 43.85L132.404 44.375C132.204 43.6917 131.846 43.1667 131.329 42.8C130.812 42.4333 130.196 42.25 129.479 42.25C128.746 42.25 128.029 42.4167 127.329 42.75C126.646 43.0667 126.029 43.5167 125.479 44.1C124.929 44.6667 124.496 45.3333 124.179 46.1C123.862 46.85 123.704 47.65 123.704 48.5C123.704 49.3167 123.846 50.05 124.129 50.7C124.429 51.3333 124.837 51.8333 125.354 52.2C125.871 52.5667 126.471 52.75 127.154 52.75C127.687 52.75 128.221 52.65 128.754 52.45C129.304 52.25 129.796 51.9833 130.229 51.65C130.662 51.3 130.979 50.925 131.179 50.525L132.754 51.025C132.387 51.6417 131.896 52.2 131.279 52.7C130.679 53.1833 130.004 53.5667 129.254 53.85C128.504 54.1167 127.737 54.25 126.954 54.25ZM139.864 54.25C138.897 54.25 138.064 54 137.364 53.5C136.68 53 136.155 52.3333 135.789 51.5C135.422 50.6667 135.239 49.7667 135.239 48.8C135.239 47.7667 135.43 46.775 135.814 45.825C136.214 44.8583 136.747 44 137.414 43.25C138.097 42.4833 138.872 41.875 139.739 41.425C140.605 40.975 141.514 40.75 142.464 40.75C143.514 40.75 144.38 41.0417 145.064 41.625C145.747 42.1917 146.23 42.8833 146.514 43.7L147.114 40.975H148.814L146.514 51.775C146.497 51.825 146.48 51.8833 146.464 51.95C146.464 52 146.464 52.05 146.464 52.1C146.464 52.35 146.622 52.4833 146.939 52.5L146.614 54C146.48 54.0167 146.355 54.0333 146.239 54.05C146.139 54.0667 146.039 54.075 145.939 54.075C145.572 54.0583 145.289 53.9583 145.089 53.775C144.889 53.5917 144.789 53.3583 144.789 53.075C144.789 52.9417 144.805 52.7667 144.839 52.55C144.889 52.3333 144.964 51.975 145.064 51.475C144.397 52.325 143.589 53 142.639 53.5C141.705 54 140.78 54.25 139.864 54.25ZM140.564 52.75C141.114 52.75 141.714 52.6083 142.364 52.325C143.014 52.025 143.605 51.6333 144.139 51.15C144.689 50.65 145.072 50.1083 145.289 49.525L146.114 45.5C146.047 44.9167 145.847 44.375 145.514 43.875C145.18 43.375 144.755 42.9833 144.239 42.7C143.739 42.4 143.197 42.25 142.614 42.25C141.864 42.25 141.155 42.4333 140.489 42.8C139.822 43.1667 139.222 43.6583 138.689 44.275C138.172 44.875 137.764 45.55 137.464 46.3C137.164 47.05 137.014 47.8 137.014 48.55C137.014 49.3167 137.164 50.025 137.464 50.675C137.764 51.3083 138.172 51.8167 138.689 52.2C139.222 52.5667 139.847 52.75 140.564 52.75ZM154.08 54.25C153.063 54.25 152.13 54.0833 151.28 53.75C150.43 53.4167 149.738 52.9333 149.205 52.3L150.205 51.15C151.322 52.3167 152.663 52.9 154.23 52.9C155.347 52.9 156.255 52.6583 156.955 52.175C157.672 51.675 158.03 51.0083 158.03 50.175C158.03 49.5417 157.755 49.1 157.205 48.85C156.672 48.5833 155.888 48.3083 154.855 48.025C154.055 47.7917 153.388 47.575 152.855 47.375C152.338 47.1583 151.947 46.8917 151.68 46.575C151.43 46.2417 151.305 45.7833 151.305 45.2C151.305 44.2833 151.547 43.5 152.03 42.85C152.53 42.1833 153.197 41.6667 154.03 41.3C154.863 40.9333 155.797 40.75 156.83 40.75C157.797 40.75 158.63 40.9167 159.33 41.25C160.047 41.5833 160.597 42.0083 160.98 42.525L159.93 43.525C159.58 43.025 159.13 42.6583 158.58 42.425C158.03 42.1917 157.397 42.075 156.68 42.075C156.03 42.075 155.422 42.175 154.855 42.375C154.288 42.575 153.83 42.875 153.48 43.275C153.147 43.675 152.98 44.1833 152.98 44.8C152.98 45.3667 153.18 45.7583 153.58 45.975C153.997 46.1917 154.672 46.425 155.605 46.675C156.488 46.925 157.238 47.1833 157.855 47.45C158.472 47.7 158.938 48.0167 159.255 48.4C159.588 48.7833 159.755 49.2917 159.755 49.925C159.755 50.775 159.513 51.525 159.03 52.175C158.563 52.825 157.905 53.3333 157.055 53.7C156.205 54.0667 155.213 54.25 154.08 54.25ZM165.649 35.75H167.349L165.599 43.925C166.299 42.9583 167.141 42.1917 168.124 41.625C169.124 41.0417 170.133 40.75 171.149 40.75C172.199 40.75 172.958 41.05 173.424 41.65C173.891 42.25 174.124 43.0583 174.124 44.075C174.124 44.4083 174.099 44.775 174.049 45.175C174.016 45.5583 173.949 45.9583 173.849 46.375L172.249 54H170.549L172.099 46.725C172.166 46.3583 172.216 46.0167 172.249 45.7C172.299 45.3833 172.324 45.0917 172.324 44.825C172.324 43.1417 171.616 42.3 170.199 42.3C169.616 42.3 168.999 42.4667 168.349 42.8C167.699 43.1167 167.091 43.5583 166.524 44.125C165.958 44.675 165.499 45.3083 165.149 46.025L163.474 54H161.774L165.649 35.75Z" fill="#121212"/>
<rect y="30" width="30" height="30" rx="15" fill="#4AC645"/>
<path d="M20.2172 39.4566C19.4773 37.5786 17.6243 37.4092 15.4664 37.8284L14.6981 35.1493L13.067 35.6173L13.8151 38.2258C13.3868 38.3485 12.951 38.4826 12.5181 38.6162L11.7655 35.9903L10.1356 36.4576L10.903 39.1362C10.552 39.2446 10.2071 39.3506 9.8691 39.4477L9.8665 39.4395L7.61707 40.0837L8.11693 41.8253C8.11693 41.8253 9.31459 41.457 9.30094 41.4849C9.96153 41.2957 10.2869 41.6173 10.4439 41.9305L11.3192 44.9825C11.3649 44.9697 11.4249 44.9546 11.4948 44.9445L11.323 44.9939L12.5482 49.2699C12.5789 49.4861 12.5517 49.8525 12.0905 49.9857C12.1166 49.9982 10.9049 50.3253 10.9049 50.3253L11.1396 52.3661L13.2622 51.7573C13.6572 51.6445 14.0477 51.5398 14.4295 51.4331L15.2074 54.1429L16.8365 53.676L16.0681 50.9948C16.5176 50.8761 16.9515 50.7555 17.3739 50.6339L18.1384 53.3028L19.7691 52.835L18.9941 50.13C21.6906 49.1866 23.4118 47.9454 22.9113 45.3034C22.5092 43.1751 21.2692 42.5295 19.6055 42.6016C20.4124 41.8483 20.7603 40.8305 20.2168 39.4568L20.2172 39.4566ZM19.5966 45.9048C20.1778 47.9297 16.6452 48.6938 15.5396 49.0115L14.5106 45.4213C15.6162 45.1046 18.9903 43.7932 19.597 45.9046L19.5966 45.9048ZM17.3854 41.0574C17.9131 42.8998 14.9599 43.514 14.0389 43.7783L13.1054 40.5222C14.0263 40.2579 16.8346 39.1357 17.3854 41.0574Z" fill="white"/>
</svg>
