<svg width="127" height="30" viewBox="0 0 127 30" fill="none" xmlns="http://www.w3.org/2000/svg">
<g clip-path="url(#clip0)">
<path d="M30.0005 14.9999C30.0005 23.2842 23.2849 30 15.0007 30C6.71636 30 0.000671387 23.2842 0.000671387 14.9999C0.000671387 6.71569 6.71636 0 15.0007 0C23.2848 0 30.0005 6.71569 30.0005 14.9999Z" fill="#BEBEBE"/>
<path d="M26.8154 15C26.8154 21.525 21.5256 26.8153 15.0003 26.8153C8.47501 26.8153 3.18481 21.525 3.18481 15C3.18481 8.4745 8.47501 3.18457 15.0003 3.18457C21.5257 3.18457 26.8154 8.47441 26.8154 15Z" fill="#BEBEBE"/>
<path d="M14.1234 19.007L15.0977 15.3384L17.4043 14.4957L17.9781 12.3396L17.9585 12.2861L15.6879 13.1156L17.3239 6.95557H12.6842L10.5448 14.9946L8.75848 15.6472L8.16824 17.8699L9.95318 17.2179L8.69224 21.9557H21.0402L21.8318 19.007H14.1234Z" fill="white"/>
</g>
<path d="M42.375 6.25H44.1L40.65 22.45H50.35L50.025 24H38.6L42.375 6.25ZM56.166 5.75H57.866L57.341 8.25H55.641L56.166 5.75ZM55.041 10.975H56.741L53.991 24H52.291L55.041 10.975ZM58.7383 22.275C58.7383 22.0917 58.7633 21.8833 58.8133 21.65L60.7883 12.325H59.0633L59.3633 10.975H61.0633L62.0133 6.575H63.7133L62.7633 10.975H65.6133L65.3133 12.325H62.4883L60.6883 20.8C60.6049 21.1667 60.5633 21.4 60.5633 21.5C60.5633 21.8667 60.6799 22.1417 60.9133 22.325C61.1466 22.4917 61.4299 22.575 61.7633 22.575C62.2133 22.575 62.6299 22.5 63.0133 22.35C63.3966 22.1833 63.6466 22.0667 63.7633 22L63.9133 23.375C63.6966 23.525 63.3049 23.6917 62.7383 23.875C62.1883 24.0583 61.5799 24.15 60.9133 24.15C60.2966 24.15 59.7799 24 59.3633 23.7C58.9466 23.3833 58.7383 22.9083 58.7383 22.275ZM71.2258 24.25C70.1591 24.25 69.2508 24.0083 68.5008 23.525C67.7508 23.025 67.1758 22.3583 66.7758 21.525C66.3758 20.6917 66.1674 19.7583 66.1508 18.725C66.1508 17.7083 66.3341 16.725 66.7008 15.775C67.0841 14.8083 67.6174 13.95 68.3008 13.2C69.0008 12.45 69.8174 11.8583 70.7508 11.425C71.6841 10.975 72.7008 10.75 73.8008 10.75C75.0341 10.75 76.0508 11.05 76.8508 11.65C77.6674 12.2333 78.0841 13.1083 78.1008 14.275C78.1174 15.6083 77.5508 16.5833 76.4008 17.2C75.2674 17.8167 73.5258 18.125 71.1758 18.125C70.7258 18.125 70.2341 18.1167 69.7008 18.1C69.1674 18.0833 68.5674 18.05 67.9008 18C67.8841 18.2167 67.8758 18.4333 67.8758 18.65C67.8924 19.4333 68.0341 20.15 68.3008 20.8C68.5674 21.45 68.9674 21.975 69.5008 22.375C70.0341 22.7583 70.7091 22.95 71.5258 22.95C72.3924 22.95 73.2008 22.7333 73.9508 22.3C74.7174 21.85 75.3174 21.2583 75.7508 20.525L77.1508 20.95C76.5674 21.9167 75.7424 22.7083 74.6758 23.325C73.6258 23.9417 72.4758 24.25 71.2258 24.25ZM73.6758 12.075C72.7424 12.075 71.9008 12.2917 71.1508 12.725C70.4008 13.1417 69.7591 13.7083 69.2258 14.425C68.7091 15.1417 68.3424 15.9333 68.1258 16.8C68.7758 16.8333 69.3424 16.8583 69.8258 16.875C70.3258 16.8917 70.8008 16.9 71.2508 16.9C73.2341 16.9 74.6174 16.6667 75.4008 16.2C76.1841 15.7167 76.5674 15.075 76.5508 14.275C76.5341 13.5083 76.2424 12.95 75.6758 12.6C75.1258 12.25 74.4591 12.075 73.6758 12.075ZM84.6547 24.25C83.6047 24.25 82.7047 24 81.9547 23.5C81.2047 23 80.6297 22.3333 80.2297 21.5C79.8464 20.6667 79.6547 19.7417 79.6547 18.725C79.6547 17.675 79.8547 16.675 80.2547 15.725C80.6547 14.7583 81.2047 13.9083 81.9047 13.175C82.6214 12.425 83.4464 11.8333 84.3797 11.4C85.3297 10.9667 86.3464 10.75 87.4297 10.75C88.6297 10.75 89.6047 11.0333 90.3547 11.6C91.1214 12.15 91.6214 12.9 91.8547 13.85L90.1047 14.375C89.9047 13.6917 89.5464 13.1667 89.0297 12.8C88.513 12.4333 87.8964 12.25 87.1797 12.25C86.4464 12.25 85.7297 12.4167 85.0297 12.75C84.3464 13.0667 83.7297 13.5167 83.1797 14.1C82.6297 14.6667 82.1964 15.3333 81.8797 16.1C81.563 16.85 81.4047 17.65 81.4047 18.5C81.4047 19.3167 81.5464 20.05 81.8297 20.7C82.1297 21.3333 82.538 21.8333 83.0547 22.2C83.5714 22.5667 84.1714 22.75 84.8547 22.75C85.388 22.75 85.9214 22.65 86.4547 22.45C87.0047 22.25 87.4964 21.9833 87.9297 21.65C88.363 21.3 88.6797 20.925 88.8797 20.525L90.4547 21.025C90.088 21.6417 89.5964 22.2 88.9797 22.7C88.3797 23.1833 87.7047 23.5667 86.9547 23.85C86.2047 24.1167 85.438 24.25 84.6547 24.25ZM97.9645 24.25C96.8311 24.25 95.8895 24.0083 95.1395 23.525C94.3895 23.025 93.8311 22.3667 93.4645 21.55C93.0978 20.7167 92.9145 19.7917 92.9145 18.775C92.9145 17.675 93.1145 16.6417 93.5145 15.675C93.9311 14.7083 94.4895 13.8583 95.1895 13.125C95.8895 12.375 96.6978 11.7917 97.6145 11.375C98.5311 10.9583 99.5061 10.75 100.539 10.75C101.656 10.75 102.589 11 103.339 11.5C104.089 12 104.648 12.6667 105.014 13.5C105.398 14.3167 105.589 15.2333 105.589 16.25C105.589 17.35 105.389 18.3833 104.989 19.35C104.589 20.3167 104.039 21.1667 103.339 21.9C102.639 22.6333 101.823 23.2083 100.889 23.625C99.9728 24.0417 98.9978 24.25 97.9645 24.25ZM98.2645 22.75C99.2145 22.75 100.114 22.4833 100.964 21.95C101.814 21.4 102.506 20.6583 103.039 19.725C103.573 18.775 103.839 17.7 103.839 16.5C103.839 15.3 103.531 14.2917 102.914 13.475C102.314 12.6583 101.423 12.25 100.239 12.25C99.5395 12.25 98.8561 12.4083 98.1895 12.725C97.5228 13.0417 96.9228 13.4917 96.3895 14.075C95.8728 14.6417 95.4561 15.3083 95.1395 16.075C94.8228 16.825 94.6645 17.65 94.6645 18.55C94.6645 19.7667 94.9645 20.775 95.5645 21.575C96.1811 22.3583 97.0811 22.75 98.2645 22.75ZM110.896 5.75H112.596L112.071 8.25H110.371L110.896 5.75ZM109.771 10.975H111.471L108.721 24H107.021L109.771 10.975ZM115.243 10.975H116.818L116.168 13.925C116.868 12.975 117.751 12.2083 118.818 11.625C119.901 11.0417 120.984 10.75 122.068 10.75C123.084 10.75 123.809 11.025 124.243 11.575C124.676 12.125 124.893 12.8833 124.893 13.85C124.893 14.2167 124.859 14.6167 124.793 15.05C124.743 15.4667 124.668 15.9083 124.568 16.375L122.968 24H121.268L122.818 16.725C122.984 15.9083 123.068 15.2 123.068 14.6C123.068 13.0667 122.418 12.3 121.118 12.3C120.501 12.3 119.851 12.4667 119.168 12.8C118.501 13.1167 117.868 13.5583 117.268 14.125C116.684 14.675 116.218 15.3083 115.868 16.025L114.193 24H112.493L115.243 10.975Z" fill="#121212"/>
<defs>
<clipPath id="clip0">
<rect width="30" height="30" fill="white"/>
</clipPath>
</defs>
</svg>
