<svg width="160" height="90" viewBox="0 0 160 90" fill="none" xmlns="http://www.w3.org/2000/svg">
<rect width="160" height="90" rx="16" fill="white"/>
<path d="M58.45 54.125C57.0667 54.125 55.9667 53.8667 55.15 53.35C54.3333 52.8167 53.75 52.1083 53.4 51.225C53.05 50.325 52.875 49.3333 52.875 48.25C52.875 47.75 52.9 47.25 52.95 46.75C53.0167 46.2333 53.1083 45.7167 53.225 45.2L55.125 36.25H56.85L54.95 45.2C54.7333 46.1833 54.625 47.1083 54.625 47.975C54.625 48.825 54.75 49.6 55 50.3C55.2667 50.9833 55.6917 51.5333 56.275 51.95C56.875 52.35 57.6917 52.55 58.725 52.55C59.775 52.55 60.6917 52.3417 61.475 51.925C62.275 51.4917 62.95 50.925 63.5 50.225C64.0667 49.5083 64.525 48.7167 64.875 47.85C65.2417 46.9833 65.5167 46.1 65.7 45.2L67.6 36.25H69.325L67.45 45.2C67.1833 46.4 66.8083 47.5417 66.325 48.625C65.8417 49.6917 65.2333 50.6417 64.5 51.475C63.7667 52.2917 62.9 52.9417 61.9 53.425C60.9 53.8917 59.75 54.125 58.45 54.125ZM75.3158 54.15C72.6992 54.15 70.5992 53.2917 69.0158 51.575L70.1908 50.15C70.6575 50.7833 71.3575 51.35 72.2908 51.85C73.2242 52.35 74.3492 52.6 75.6658 52.6C77.1658 52.6 78.3575 52.2833 79.2408 51.65C80.1242 51.0167 80.5658 50.1333 80.5658 49C80.5658 48.3833 80.3908 47.8917 80.0408 47.525C79.7075 47.1417 79.2158 46.825 78.5658 46.575C77.9325 46.325 77.1492 46.0833 76.2158 45.85C75.2492 45.6 74.4325 45.3333 73.7658 45.05C73.0992 44.75 72.5908 44.3667 72.2408 43.9C71.8908 43.4333 71.7158 42.825 71.7158 42.075C71.7158 40.8583 72.0325 39.8083 72.6658 38.925C73.2992 38.025 74.1575 37.3333 75.2408 36.85C76.3242 36.3667 77.5408 36.125 78.8908 36.125C80.0075 36.125 80.9825 36.3083 81.8158 36.675C82.6492 37.025 83.3492 37.525 83.9158 38.175L82.7908 39.575C82.4408 39.025 81.8992 38.575 81.1658 38.225C80.4325 37.8583 79.5658 37.675 78.5658 37.675C76.8825 37.675 75.6325 38.05 74.8158 38.8C74.0158 39.55 73.6158 40.4667 73.6158 41.55C73.6158 42.1 73.7575 42.5417 74.0408 42.875C74.3408 43.2083 74.7825 43.4833 75.3658 43.7C75.9658 43.9167 76.7158 44.1417 77.6158 44.375C78.6492 44.625 79.5242 44.9083 80.2408 45.225C80.9742 45.5417 81.5325 45.9583 81.9158 46.475C82.2992 46.975 82.4908 47.6417 82.4908 48.475C82.4908 49.7583 82.1658 50.825 81.5158 51.675C80.8658 52.5083 79.9992 53.1333 78.9158 53.55C77.8325 53.95 76.6325 54.15 75.3158 54.15ZM88.3898 36.25H94.1398C95.6065 36.25 96.8148 36.5583 97.7648 37.175C98.7315 37.775 99.4482 38.5917 99.9148 39.625C100.382 40.6417 100.615 41.7833 100.615 43.05C100.615 44.6167 100.357 46.0667 99.8398 47.4C99.3232 48.7333 98.6065 49.8917 97.6898 50.875C96.7732 51.8583 95.6898 52.625 94.4398 53.175C93.1898 53.725 91.8315 54 90.3648 54H84.6148L88.3898 36.25ZM90.6898 52.45C91.9398 52.45 93.0648 52.2083 94.0648 51.725C95.0648 51.225 95.9148 50.55 96.6148 49.7C97.3315 48.8333 97.8732 47.8583 98.2398 46.775C98.6232 45.675 98.8148 44.525 98.8148 43.325C98.8148 42.2583 98.6232 41.3083 98.2398 40.475C97.8732 39.6417 97.3148 38.9917 96.5648 38.525C95.8315 38.0417 94.9065 37.8 93.7898 37.8H89.7898L86.6648 52.45H90.6898ZM108.6 37.8H102.65L102.975 36.25H116.65L116.325 37.8H110.35L106.9 54H105.175L108.6 37.8Z" fill="#121212"/>
<path d="M28 60C36.2843 60 43 53.2843 43 45C43 36.7157 36.2843 30 28 30C19.7157 30 13 36.7157 13 45C13 53.2843 19.7157 60 28 60Z" fill="#26A17B"/>
<path fill-rule="evenodd" clip-rule="evenodd" d="M29.8017 46.2966V46.2947C29.6986 46.3022 29.167 46.3341 27.9811 46.3341C27.0342 46.3341 26.3677 46.3059 26.1333 46.2947V46.2975C22.4883 46.1372 19.7677 45.5025 19.7677 44.7431C19.7677 43.9847 22.4883 43.35 26.1333 43.1869V45.6656C26.3714 45.6825 27.0539 45.7228 27.997 45.7228C29.1286 45.7228 29.6958 45.6759 29.8017 45.6666V43.1888C33.4392 43.3509 36.1533 43.9856 36.1533 44.7431C36.1533 45.5025 33.4392 46.1353 29.8017 46.2966ZM29.8017 42.9309V40.7128H34.8773V37.3303H21.0577V40.7128H26.1333V42.93C22.0083 43.1194 18.9061 43.9369 18.9061 44.9156C18.9061 45.8944 22.0083 46.7109 26.1333 46.9013V54.0094H29.8017V46.8994C33.9202 46.71 37.0148 45.8934 37.0148 44.9156C37.0148 43.9378 33.9202 43.1213 29.8017 42.9309Z" fill="white"/>
</svg>
