<svg width="239" height="76" viewBox="0 0 239 76" fill="none" xmlns="http://www.w3.org/2000/svg">
<g clip-path="url(#clip0)">
<rect y="0.0837402" width="239" height="75" rx="5" fill="#171738"/>
<path d="M94.488 57.0837H98.088L91.608 40.0677H87.768L81.24 57.0837H84.744L86.16 53.1957H93.072L94.488 57.0837ZM89.616 43.7397L91.968 50.1717H87.264L89.616 43.7397ZM103.169 61.6437V55.9317C103.745 56.7237 104.945 57.3717 106.577 57.3717C109.913 57.3717 112.145 54.7317 112.145 51.1557C112.145 47.6517 110.153 45.0117 106.697 45.0117C104.921 45.0117 103.601 45.8037 103.073 46.7157V45.2757H99.9774V61.6437H103.169ZM109.001 51.1797C109.001 53.2917 107.705 54.5157 106.073 54.5157C104.441 54.5157 103.121 53.2677 103.121 51.1797C103.121 49.0917 104.441 47.8677 106.073 47.8677C107.705 47.8677 109.001 49.0917 109.001 51.1797ZM117.865 61.6437V55.9317C118.441 56.7237 119.641 57.3717 121.273 57.3717C124.609 57.3717 126.841 54.7317 126.841 51.1557C126.841 47.6517 124.849 45.0117 121.393 45.0117C119.617 45.0117 118.297 45.8037 117.769 46.7157V45.2757H114.673V61.6437H117.865ZM123.697 51.1797C123.697 53.2917 122.401 54.5157 120.769 54.5157C119.137 54.5157 117.817 53.2677 117.817 51.1797C117.817 49.0917 119.137 47.8677 120.769 47.8677C122.401 47.8677 123.697 49.0917 123.697 51.1797ZM146.986 44.1237C146.602 42.2037 145.018 39.7077 140.89 39.7077C137.674 39.7077 134.962 42.0117 134.962 45.0357C134.962 47.6037 136.714 49.3557 139.426 49.9077L141.802 50.3877C143.122 50.6517 143.866 51.4197 143.866 52.4037C143.866 53.6037 142.882 54.4917 141.106 54.4917C138.706 54.4917 137.53 52.9797 137.386 51.2997L134.314 52.1157C134.578 54.5397 136.57 57.4437 141.082 57.4437C145.042 57.4437 147.226 54.8037 147.226 52.1877C147.226 49.7877 145.57 47.7717 142.474 47.1717L140.098 46.7157C138.85 46.4757 138.25 45.7317 138.25 44.7957C138.25 43.6677 139.306 42.6357 140.914 42.6357C143.074 42.6357 143.842 44.0997 144.01 45.0357L146.986 44.1237ZM153.835 41.7477H150.955V43.4037C150.955 44.4597 150.379 45.2757 149.131 45.2757H148.531V48.1077H150.667V53.6037C150.667 55.8837 152.107 57.2517 154.411 57.2517C155.347 57.2517 155.923 57.0837 156.211 56.9637V54.3237C156.043 54.3717 155.611 54.4197 155.227 54.4197C154.315 54.4197 153.835 54.0837 153.835 53.0517V48.1077H156.211V45.2757H153.835V41.7477ZM164.11 54.5397C162.55 54.5397 161.11 53.3877 161.11 51.1797C161.11 48.9477 162.55 47.8197 164.11 47.8197C165.67 47.8197 167.11 48.9477 167.11 51.1797C167.11 53.4117 165.67 54.5397 164.11 54.5397ZM164.11 44.9157C160.582 44.9157 157.918 47.5317 157.918 51.1797C157.918 54.8037 160.582 57.4437 164.11 57.4437C167.638 57.4437 170.302 54.8037 170.302 51.1797C170.302 47.5317 167.638 44.9157 164.11 44.9157ZM180.021 45.2277C179.781 45.2037 179.541 45.1797 179.277 45.1797C178.269 45.1797 176.637 45.4677 175.917 47.0277V45.2757H172.821V57.0837H176.013V51.6837C176.013 49.1397 177.429 48.3477 179.061 48.3477C179.349 48.3477 179.661 48.3717 180.021 48.4437V45.2277ZM184.477 49.8357C184.549 48.7557 185.461 47.5077 187.117 47.5077C188.941 47.5077 189.709 48.6597 189.757 49.8357H184.477ZM190.069 52.9077C189.685 53.9637 188.869 54.7077 187.381 54.7077C185.797 54.7077 184.477 53.5797 184.405 52.0197H192.853C192.853 51.9717 192.901 51.4917 192.901 51.0357C192.901 47.2437 190.717 44.9157 187.069 44.9157C184.045 44.9157 181.261 47.3637 181.261 51.1317C181.261 55.1157 184.117 57.4437 187.357 57.4437C190.261 57.4437 192.133 55.7397 192.733 53.6997L190.069 52.9077Z" fill="white"/>
<path d="M86.375 27.0837H82.4375V15.74H86.4062C87.9323 15.74 89.2135 16.2452 90.25 17.2556C91.2812 18.266 91.7969 19.6567 91.7969 21.4275C91.7969 23.1983 91.276 24.5863 90.2344 25.5916C89.1875 26.5863 87.901 27.0837 86.375 27.0837ZM84.0078 25.6931H86.3281C87.4375 25.6931 88.3568 25.3259 89.0859 24.5916C89.8203 23.8572 90.1875 22.8025 90.1875 21.4275C90.1875 20.0525 89.8281 18.9952 89.1094 18.2556C88.3906 17.5108 87.474 17.1358 86.3594 17.1306H84.0078V25.6931ZM97.0938 19.1462C98.2344 19.1462 99.1745 19.5317 99.9141 20.3025C100.659 21.0733 101.031 22.0499 101.031 23.2322C101.031 24.4145 100.661 25.391 99.9219 26.1619C99.1823 26.9327 98.2396 27.3181 97.0938 27.3181C95.9479 27.3181 95.0052 26.9327 94.2656 26.1619C93.526 25.391 93.1562 24.4171 93.1562 23.24C93.1562 22.0629 93.526 21.0837 94.2656 20.3025C95.0052 19.5317 95.9479 19.1462 97.0938 19.1462ZM97.0938 25.9822C97.7656 25.9822 98.3333 25.74 98.7969 25.2556C99.2604 24.7764 99.4922 24.1046 99.4922 23.24C99.4922 22.3754 99.2604 21.7009 98.7969 21.2166C98.3333 20.7322 97.7656 20.49 97.0938 20.49C96.4219 20.49 95.8542 20.7322 95.3906 21.2166C94.9271 21.7009 94.6953 22.3728 94.6953 23.2322C94.6953 24.0916 94.9271 24.766 95.3906 25.2556C95.8542 25.7452 96.4219 25.9874 97.0938 25.9822ZM107.133 19.3884H108.688L110.688 25.1775L112.383 19.3884H113.961L111.469 27.0837H109.914L107.867 21.2244L105.867 27.0837H104.281L101.758 19.3884H103.406L105.133 25.1775L107.133 19.3884ZM116.984 22.6384V27.0837H115.484V19.3884H116.953V20.49C117.464 19.6046 118.253 19.1619 119.32 19.1619C120.206 19.1619 120.885 19.4457 121.359 20.0134C121.833 20.5811 122.073 21.3103 122.078 22.2009V27.0837H120.57V22.4587C120.57 21.1671 119.974 20.5212 118.781 20.5212C118.208 20.5212 117.766 20.7218 117.453 21.1228C117.141 21.5238 116.984 22.0291 116.984 22.6384ZM125.969 27.0837H124.469V15.4978H125.969V27.0837ZM131.828 19.1462C132.969 19.1462 133.909 19.5317 134.648 20.3025C135.393 21.0733 135.766 22.0499 135.766 23.2322C135.766 24.4145 135.396 25.391 134.656 26.1619C133.917 26.9327 132.974 27.3181 131.828 27.3181C130.682 27.3181 129.74 26.9327 129 26.1619C128.26 25.391 127.891 24.4171 127.891 23.24C127.891 22.0629 128.26 21.0837 129 20.3025C129.74 19.5317 130.682 19.1462 131.828 19.1462ZM131.828 25.9822C132.5 25.9822 133.068 25.74 133.531 25.2556C133.995 24.7764 134.227 24.1046 134.227 23.24C134.227 22.3754 133.995 21.7009 133.531 21.2166C133.068 20.7322 132.5 20.49 131.828 20.49C131.156 20.49 130.589 20.7322 130.125 21.2166C129.661 21.7009 129.43 22.3728 129.43 23.2322C129.43 24.0916 129.661 24.766 130.125 25.2556C130.589 25.7452 131.156 25.9874 131.828 25.9822ZM139.992 26.0603C140.664 26.0603 141.203 25.878 141.609 25.5134C142.016 25.1488 142.216 24.5733 142.211 23.7869V23.4353L139.859 23.7869C139.516 23.8389 139.245 23.9613 139.047 24.1541C138.849 24.3468 138.747 24.5994 138.742 24.9119C138.742 25.2244 138.857 25.4952 139.086 25.7244C139.315 25.9483 139.617 26.0603 139.992 26.0603ZM139.68 27.3259C138.987 27.3259 138.401 27.0994 137.922 26.6462C137.443 26.1931 137.203 25.6436 137.203 24.9978C137.203 24.352 137.417 23.8285 137.844 23.4275C138.271 23.0264 138.836 22.7791 139.539 22.6853L141.625 22.3806C142.021 22.3285 142.219 22.1176 142.219 21.7478C142.219 21.378 142.078 21.0655 141.797 20.8103C141.516 20.5551 141.109 20.4275 140.578 20.4275C140.047 20.4275 139.633 20.5681 139.336 20.8494C139.039 21.1306 138.862 21.5082 138.805 21.9822L137.367 21.6462C137.44 20.9171 137.776 20.3181 138.375 19.8494C138.974 19.3806 139.688 19.1462 140.516 19.1462C141.609 19.1462 142.417 19.4119 142.938 19.9431C143.458 20.4744 143.719 21.1488 143.719 21.9666V25.8181C143.719 26.2764 143.75 26.6983 143.812 27.0837H142.344C142.292 26.766 142.266 26.4197 142.266 26.0447C142.052 26.3884 141.74 26.6879 141.328 26.9431C140.917 27.1983 140.367 27.3259 139.68 27.3259ZM151.453 26.0447V25.9119C151.25 26.3077 150.943 26.6358 150.531 26.8962C150.12 27.1567 149.633 27.2895 149.07 27.2947C147.971 27.2895 147.089 26.9014 146.422 26.1306C145.755 25.3598 145.422 24.4014 145.422 23.2556C145.422 22.1098 145.763 21.141 146.445 20.3494C147.128 19.5681 148.003 19.1775 149.07 19.1775C149.701 19.1775 150.214 19.3025 150.609 19.5525C151.005 19.8025 151.276 20.1098 151.422 20.4744V15.4978H152.906V25.6619C152.906 26.1827 152.935 26.6567 152.992 27.0837H151.531C151.479 26.7869 151.453 26.4405 151.453 26.0447ZM150.844 21.24C150.448 20.7504 149.909 20.5056 149.227 20.5056C148.544 20.5056 147.995 20.7556 147.578 21.2556C147.161 21.7556 146.956 22.4093 146.961 23.2166C146.966 24.0238 147.167 24.6827 147.562 25.1931C147.958 25.7035 148.5 25.9587 149.188 25.9587C149.875 25.9587 150.422 25.6983 150.828 25.1775C151.234 24.6567 151.438 23.9926 151.438 23.1853C151.438 22.378 151.24 21.7296 150.844 21.24ZM162.766 19.1462C163.906 19.1462 164.846 19.5317 165.586 20.3025C166.331 21.0733 166.703 22.0499 166.703 23.2322C166.703 24.4145 166.333 25.391 165.594 26.1619C164.854 26.9327 163.911 27.3181 162.766 27.3181C161.62 27.3181 160.677 26.9327 159.938 26.1619C159.198 25.391 158.828 24.4171 158.828 23.24C158.828 22.0629 159.198 21.0837 159.938 20.3025C160.677 19.5317 161.62 19.1462 162.766 19.1462ZM162.766 25.9822C163.438 25.9822 164.005 25.74 164.469 25.2556C164.932 24.7764 165.164 24.1046 165.164 23.24C165.164 22.3754 164.932 21.7009 164.469 21.2166C164.005 20.7322 163.438 20.49 162.766 20.49C162.094 20.49 161.526 20.7322 161.062 21.2166C160.599 21.7009 160.367 22.3728 160.367 23.2322C160.367 24.0916 160.599 24.766 161.062 25.2556C161.526 25.7452 162.094 25.9874 162.766 25.9822ZM170.125 22.6384V27.0837H168.625V19.3884H170.094V20.49C170.604 19.6046 171.393 19.1619 172.461 19.1619C173.346 19.1619 174.026 19.4457 174.5 20.0134C174.974 20.5811 175.214 21.3103 175.219 22.2009V27.0837H173.711V22.4587C173.711 21.1671 173.115 20.5212 171.922 20.5212C171.349 20.5212 170.906 20.7218 170.594 21.1228C170.281 21.5238 170.125 22.0291 170.125 22.6384ZM183.625 24.7478C183.625 25.4509 183.943 25.8025 184.578 25.8025C184.88 25.8025 185.117 25.7817 185.289 25.74V27.0212C185.034 27.115 184.693 27.1619 184.266 27.1619C183.604 27.1619 183.081 26.9692 182.695 26.5837C182.31 26.1983 182.117 25.6619 182.117 24.9744V20.7478H180.648V19.3884H181.062C181.458 19.3884 181.755 19.2791 181.953 19.0603C182.151 18.8416 182.25 18.5551 182.25 18.2009V16.9587H183.625V19.3884H185.289V20.7478H183.625V24.7478ZM188.797 27.0837H187.297V15.4978H188.797V20.2869C189.307 19.5369 190.047 19.1619 191.016 19.1619C191.984 19.1619 192.703 19.4457 193.172 20.0134C193.646 20.5811 193.885 21.3103 193.891 22.2009V27.0837H192.383V22.4587C192.383 21.1671 191.786 20.5212 190.594 20.5212C190.042 20.5212 189.609 20.7087 189.297 21.0837C188.984 21.4587 188.818 21.9483 188.797 22.5525V27.0837ZM199.531 27.3259C198.448 27.3207 197.531 26.9483 196.781 26.2087C196.031 25.4692 195.656 24.49 195.656 23.2712C195.656 22.0525 196.018 21.0629 196.742 20.3025C197.466 19.5369 198.331 19.1514 199.336 19.1462C200.497 19.1462 201.404 19.5108 202.055 20.24C202.706 20.9692 203.031 21.9483 203.031 23.1775C203.031 23.3702 203.021 23.5317 203 23.6619H197.211C197.221 24.3442 197.448 24.9041 197.891 25.3416C198.333 25.7791 198.88 25.9978 199.531 25.9978C200.625 25.9978 201.344 25.4796 201.688 24.4431L202.984 24.8884C202.76 25.602 202.344 26.1879 201.734 26.6462C201.125 27.1046 200.391 27.3311 199.531 27.3259ZM200.891 21.0212C200.526 20.6567 200.029 20.4744 199.398 20.4744C198.768 20.4744 198.26 20.6697 197.875 21.0603C197.49 21.4509 197.284 21.9119 197.258 22.4431H201.461C201.445 21.8598 201.255 21.3858 200.891 21.0212Z" fill="#E9F7FE"/>
<path fill-rule="evenodd" clip-rule="evenodd" d="M55 45.3902C54.2343 47.0893 53.8688 47.8476 52.8828 49.3488C51.5091 51.4452 49.571 54.0562 47.1693 54.0784C45.0359 54.0983 44.4876 52.6872 41.5915 52.7042C38.6953 52.7211 38.0917 54.1035 35.9583 54.0835C33.5566 54.0621 31.7217 51.7044 30.3465 49.6065C26.5027 43.7435 26.1011 36.8637 28.4718 33.2063C30.1564 30.6056 32.8153 29.086 35.3142 29.086C37.8589 29.086 39.4588 30.4838 41.5634 30.4838C43.6048 30.4838 44.848 29.0837 47.7906 29.0837C50.0146 29.0837 52.3713 30.297 54.0508 32.3933C48.5481 35.4142 49.4428 43.2849 55 45.3902Z" fill="white"/>
<path fill-rule="evenodd" clip-rule="evenodd" d="M46.2918 25.4807C47.4013 24.0803 48.2424 22.1046 47.9366 20.0837C46.1243 20.2056 44.0062 21.3397 42.769 22.8176C41.6457 24.1586 40.7182 26.1478 41.0791 28.0815C43.0558 28.1424 45.1028 26.9804 46.2918 25.4807Z" fill="white"/>
</g>
<defs>
<clipPath id="clip0">
<rect width="239" height="75" fill="white" transform="translate(0 0.0837402)"/>
</clipPath>
</defs>
</svg>
