<svg width="148" height="168" viewBox="0 0 148 168" fill="none" xmlns="http://www.w3.org/2000/svg">
<g filter="url(#filter0_d)">
<rect x="0.5" width="97" height="97" rx="10" fill="#086278"/>
</g>
<path fill-rule="evenodd" clip-rule="evenodd" d="M37.131 63.841L26.5 53L29.5 50L37.5 55L60.5 31L63.5 33L40.15 63.653C39.7981 64.1148 39.2629 64.4009 38.6835 64.437C38.104 64.4731 37.5374 64.2556 37.131 63.841Z" fill="white"/>
<path opacity="0.497489" fill-rule="evenodd" clip-rule="evenodd" d="M71.5 40H66.5C65.9477 40 65.5 39.5523 65.5 39C65.5 38.4477 65.9477 38 66.5 38H71.5C72.0523 38 72.5 38.4477 72.5 39C72.5 39.5523 72.0523 40 71.5 40Z" fill="white"/>
<path opacity="0.497489" fill-rule="evenodd" clip-rule="evenodd" d="M71.5 49H59.5C58.9477 49 58.5 48.5523 58.5 48C58.5 47.4477 58.9477 47 59.5 47H71.5C72.0523 47 72.5 47.4477 72.5 48C72.5 48.5523 72.0523 49 71.5 49Z" fill="white"/>
<path opacity="0.497489" fill-rule="evenodd" clip-rule="evenodd" d="M71.5 58H52.5C51.9477 58 51.5 57.5523 51.5 57C51.5 56.4477 51.9477 56 52.5 56H71.5C72.0523 56 72.5 56.4477 72.5 57C72.5 57.5523 72.0523 58 71.5 58Z" fill="white"/>
<path opacity="0.497489" fill-rule="evenodd" clip-rule="evenodd" d="M71.5 67H45.5C44.9477 67 44.5 66.5523 44.5 66C44.5 65.4477 44.9477 65 45.5 65H71.5C72.0523 65 72.5 65.4477 72.5 66C72.5 66.5523 72.0523 67 71.5 67Z" fill="white"/>
<defs>
<filter id="filter0_d" x="-53.5" y="-22" width="205" height="205" filterUnits="userSpaceOnUse" color-interpolation-filters="sRGB">
<feFlood flood-opacity="0" result="BackgroundImageFix"/>
<feColorMatrix in="SourceAlpha" type="matrix" values="0 0 0 0 0 0 0 0 0 0 0 0 0 0 0 0 0 0 127 0"/>
<feOffset dy="32"/>
<feGaussianBlur stdDeviation="27"/>
<feColorMatrix type="matrix" values="0 0 0 0 0.0313726 0 0 0 0 0.384314 0 0 0 0 0.470588 0 0 0 0.2246 0"/>
<feBlend mode="normal" in2="BackgroundImageFix" result="effect1_dropShadow"/>
<feBlend mode="normal" in="SourceGraphic" in2="effect1_dropShadow" result="shape"/>
</filter>
</defs>
</svg>
