<svg width="152" height="183" viewBox="0 0 152 183" fill="none" xmlns="http://www.w3.org/2000/svg">
<g filter="url(#filter0_d)">
<rect x="0.5" width="97" height="97" rx="10" fill="#086278"/>
</g>
<path fill-rule="evenodd" clip-rule="evenodd" d="M41.5 39C40.9477 39 40.5 38.7015 40.5 38.3333V33.6667C40.5 33.2985 40.9477 33 41.5 33C42.0523 33 42.5 33.2985 42.5 33.6667V38.3333C42.5 38.7015 42.0523 39 41.5 39Z" fill="white"/>
<path fill-rule="evenodd" clip-rule="evenodd" d="M57.5 39C56.9477 39 56.5 38.7015 56.5 38.3333V33.6667C56.5 33.2985 56.9477 33 57.5 33C58.0523 33 58.5 33.2985 58.5 33.6667V38.3333C58.5 38.7015 58.0523 39 57.5 39Z" fill="white"/>
<path opacity="0.5" fill-rule="evenodd" clip-rule="evenodd" d="M51.9909 60.6316H35.6818C35.2802 60.6316 34.9545 60.3252 34.9545 59.9474V44.2105C34.9545 43.8326 35.2802 43.5263 35.6818 43.5263H63.3182C63.7198 43.5263 64.0455 43.8326 64.0455 44.2105V52.2753C64.5768 52.6029 65.0651 52.9885 65.5 53.4241V37.3684C65.5 36.6127 64.8488 36 64.0455 36H59.6818V38.7368C59.6818 39.8705 58.705 40.7895 57.5 40.7895C56.295 40.7895 55.3182 39.8705 55.3182 38.7368V36H43.6818V38.7368C43.6818 39.8705 42.705 40.7895 41.5 40.7895C40.295 40.7895 39.3182 39.8705 39.3182 38.7368V36H34.9545C34.1512 36 33.5 36.6127 33.5 37.3684V60.6316C33.5 61.3873 34.1512 62 34.9545 62H52.5618C52.324 61.5627 52.1328 61.1043 51.9909 60.6316Z" fill="white"/>
<path fill-rule="evenodd" clip-rule="evenodd" d="M60 65C56.4101 65 53.5 62.0899 53.5 58.5C53.504 54.9118 56.4118 52.004 60 52C63.5899 52 66.5 54.9101 66.5 58.5C66.5 62.0899 63.5899 65 60 65ZM64.1217 56.8439C64.4037 56.5619 64.4037 56.1048 64.1217 55.8227C63.8397 55.5408 63.3825 55.5408 63.1005 55.8227L58.5556 60.3677L56.8995 58.7116C56.6161 58.4379 56.1657 58.4418 55.8871 58.7204C55.6085 58.999 55.6046 59.4494 55.8783 59.7328L58.0449 61.8995C58.327 62.1814 58.7841 62.1814 59.0662 61.8995L64.1217 56.8439Z" fill="white"/>
<defs>
<filter id="filter0_d" x="-53.5" y="-22" width="205" height="205" filterUnits="userSpaceOnUse" color-interpolation-filters="sRGB">
<feFlood flood-opacity="0" result="BackgroundImageFix"/>
<feColorMatrix in="SourceAlpha" type="matrix" values="0 0 0 0 0 0 0 0 0 0 0 0 0 0 0 0 0 0 127 0"/>
<feOffset dy="32"/>
<feGaussianBlur stdDeviation="27"/>
<feColorMatrix type="matrix" values="0 0 0 0 0.0313726 0 0 0 0 0.384314 0 0 0 0 0.470588 0 0 0 0.2246 0"/>
<feBlend mode="normal" in2="BackgroundImageFix" result="effect1_dropShadow"/>
<feBlend mode="normal" in="SourceGraphic" in2="effect1_dropShadow" result="shape"/>
</filter>
</defs>
</svg>
