<svg width="152" height="168" viewBox="0 0 152 168" fill="none" xmlns="http://www.w3.org/2000/svg">
<g filter="url(#filter0_d)">
<rect x="0.5" width="97" height="97" rx="10" fill="#086278"/>
</g>
<path opacity="0.5" fill-rule="evenodd" clip-rule="evenodd" d="M52.6264 49.7269C49.1 48.7491 45.7784 48.7693 42.3656 49.7179C40.6512 50.1936 39.5 51.6404 39.5 53.3176V54.2496C39.5 54.6638 39.8576 55 40.3 55H54.7C55.1424 55 55.5 54.6638 55.5 54.2496V53.3281C55.5 51.6509 54.3456 50.2034 52.6264 49.7269Z" fill="white"/>
<path opacity="0.5" fill-rule="evenodd" clip-rule="evenodd" d="M48 47C50.5343 47 52.5 44.1054 52.5 41.6154C52.5 39.07 50.4818 37 48 37C45.5182 37 43.5 39.07 43.5 41.6154C43.5 44.1054 45.4657 47 48 47Z" fill="white"/>
<path fill-rule="evenodd" clip-rule="evenodd" d="M61.7135 59C61.0411 59.7998 60.2999 60.5408 59.5 61.213L65.2865 67L67.5 64.7862L61.7135 59Z" fill="white"/>
<path fill-rule="evenodd" clip-rule="evenodd" d="M48 31C57.0978 31 64.5 38.4014 64.5 47.5C64.5 56.5986 57.0978 64 48 64C38.9022 64 31.5 56.5986 31.5 47.5C31.5 38.4014 38.9022 31 48 31ZM33.0714 47.5C33.0714 55.7319 39.7681 62.4286 48 62.4286C56.2319 62.4286 62.9286 55.7319 62.9286 47.5C62.9286 39.2681 56.2319 32.5714 48 32.5714C39.7681 32.5714 33.0714 39.2681 33.0714 47.5Z" fill="white"/>
<defs>
<filter id="filter0_d" x="-53.5" y="-22" width="205" height="205" filterUnits="userSpaceOnUse" color-interpolation-filters="sRGB">
<feFlood flood-opacity="0" result="BackgroundImageFix"/>
<feColorMatrix in="SourceAlpha" type="matrix" values="0 0 0 0 0 0 0 0 0 0 0 0 0 0 0 0 0 0 127 0"/>
<feOffset dy="32"/>
<feGaussianBlur stdDeviation="27"/>
<feColorMatrix type="matrix" values="0 0 0 0 0.0313726 0 0 0 0 0.384314 0 0 0 0 0.470588 0 0 0 0.2246 0"/>
<feBlend mode="normal" in2="BackgroundImageFix" result="effect1_dropShadow"/>
<feBlend mode="normal" in="SourceGraphic" in2="effect1_dropShadow" result="shape"/>
</filter>
</defs>
</svg>
