<svg width="37" height="36" viewBox="0 0 37 36" fill="none" xmlns="http://www.w3.org/2000/svg">
<path d="M26.8234 13.6455C26.7657 13.5873 26.6971 13.5412 26.6214 13.5096C26.5458 13.4781 26.4647 13.4619 26.3827 13.4619C26.3008 13.4619 26.2197 13.4781 26.144 13.5096C26.0684 13.5412 25.9998 13.5873 25.9421 13.6455L22.4724 17.1214C22.0435 16.8397 21.5547 16.6623 21.045 16.6032C20.5354 16.5442 20.0189 16.6052 19.537 16.7814C19.0551 16.9576 18.6211 17.244 18.2697 17.6178C17.9183 17.9917 17.6591 18.4425 17.5131 18.9344C17.367 19.4263 17.338 19.9455 17.4283 20.4505C17.5187 20.9556 17.726 21.4325 18.0336 21.8432C18.3412 22.2539 18.7406 22.5869 19.1998 22.8156C19.6591 23.0444 20.1655 23.1626 20.6786 23.1607C21.1108 23.1615 21.539 23.077 21.9385 22.9119C22.338 22.7469 22.7009 22.5046 23.0066 22.199C23.3122 21.8934 23.5545 21.5304 23.7195 21.1309C23.8845 20.7314 23.9691 20.3033 23.9683 19.871C23.9577 19.2013 23.7409 18.5511 23.3476 18.009L26.811 14.5517C26.8738 14.4945 26.9242 14.425 26.9591 14.3475C26.994 14.2701 27.0126 14.1863 27.0137 14.1013C27.0149 14.0164 26.9986 13.9321 26.9659 13.8537C26.9331 13.7753 26.8847 13.7044 26.8234 13.6455ZM22.1248 21.3234C21.8862 21.5607 21.5928 21.7356 21.2705 21.8325C20.9483 21.9294 20.6071 21.9455 20.2772 21.8792C19.9473 21.8129 19.6387 21.6664 19.3789 21.4525C19.1191 21.2387 18.9159 20.9641 18.7874 20.6531C18.659 20.3421 18.6091 20.0042 18.6422 19.6693C18.6754 19.3344 18.7905 19.0129 18.9775 18.7331C19.1644 18.4533 19.4174 18.2238 19.7141 18.0651C20.0108 17.9063 20.3421 17.8231 20.6786 17.8228C21.0844 17.8224 21.4811 17.9425 21.8185 18.1679C22.1559 18.3934 22.4187 18.7139 22.5736 19.089C22.7286 19.464 22.7686 19.8766 22.6887 20.2744C22.6088 20.6722 22.4125 21.0373 22.1248 21.3234Z" fill="#0B8CAD"/>
<path opacity="0.5" d="M3.10687 19.2999C3.10687 19.4646 3.17227 19.6224 3.28867 19.7388C3.40507 19.8552 3.56295 19.9206 3.72756 19.9206H14.4655C14.6301 19.9206 14.788 19.8552 14.9044 19.7388C15.0208 19.6224 15.0862 19.4646 15.0862 19.2999C15.0862 19.1353 15.0208 18.9775 14.9044 18.8611C14.788 18.7447 14.6301 18.6793 14.4655 18.6793H3.72756C3.56295 18.6793 3.40507 18.7447 3.28867 18.8611C3.17227 18.9775 3.10687 19.1353 3.10687 19.2999Z" fill="#0B8CAD"/>
<path opacity="0.5" d="M1.12069 14.7069H11.8586C12.0232 14.7069 12.1811 14.6415 12.2975 14.5251C12.4139 14.4087 12.4793 14.2508 12.4793 14.0862C12.4793 13.9216 12.4139 13.7637 12.2975 13.6473C12.1811 13.5309 12.0232 13.4655 11.8586 13.4655H1.12069C0.956073 13.4655 0.798198 13.5309 0.681796 13.6473C0.565394 13.7637 0.5 13.9216 0.5 14.0862C0.5 14.2508 0.565394 14.4087 0.681796 14.5251C0.798198 14.6415 0.956073 14.7069 1.12069 14.7069Z" fill="#0B8CAD"/>
<path opacity="0.5" d="M12.4793 24.5138C12.4793 24.3491 12.4139 24.1913 12.2975 24.0749C12.1811 23.9585 12.0232 23.8931 11.8586 23.8931H1.12069C0.956073 23.8931 0.798198 23.9585 0.681796 24.0749C0.565394 24.1913 0.5 24.3491 0.5 24.5138C0.5 24.6784 0.565394 24.8362 0.681796 24.9526C0.798198 25.069 0.956073 25.1344 1.12069 25.1344H11.8586C12.0232 25.1344 12.1811 25.069 12.2975 24.9526C12.4139 24.8362 12.4793 24.6784 12.4793 24.5138Z" fill="#0B8CAD"/>
<path d="M32.0993 8.68618L32.751 8.06549C33.0616 8.24166 33.4119 8.33566 33.7689 8.3386C34.1863 8.3386 34.5943 8.21483 34.9414 7.98294C35.2884 7.75105 35.5589 7.42146 35.7186 7.03585C35.8784 6.65023 35.9202 6.22591 35.8387 5.81655C35.7573 5.40718 35.5563 5.03115 35.2612 4.73601C34.966 4.44088 34.59 4.23989 34.1806 4.15846C33.7713 4.07703 33.347 4.11882 32.9613 4.27855C32.5757 4.43828 32.2461 4.70876 32.0143 5.05581C31.7824 5.40285 31.6586 5.81087 31.6586 6.22825C31.6594 6.5545 31.7382 6.87583 31.8883 7.16549L31.1931 7.86067C28.5104 5.51304 25.1035 4.15685 21.5414 4.0186V1.36205H23.7758C23.9405 1.36205 24.0983 1.29665 24.2147 1.18025C24.3311 1.06385 24.3965 0.905973 24.3965 0.741356C24.3965 0.576739 24.3311 0.418864 24.2147 0.302462C24.0983 0.18606 23.9405 0.120667 23.7758 0.120667L18.1276 0.120667C17.9629 0.120667 17.8051 0.18606 17.6887 0.302462C17.5723 0.418864 17.5069 0.576739 17.5069 0.741356C17.5069 0.905973 17.5723 1.06385 17.6887 1.18025C17.8051 1.29665 17.9629 1.36205 18.1276 1.36205H20.3V4.0186C16.5615 4.16415 12.9988 5.64384 10.2572 8.18963C10.1665 8.2746 10.1033 8.38486 10.076 8.50613C10.0486 8.6274 10.0583 8.7541 10.1038 8.8698C10.1492 8.9855 10.2284 9.08488 10.331 9.15506C10.4336 9.22525 10.555 9.263 10.6793 9.26343H15.1234C15.2253 9.26292 15.3255 9.23734 15.4151 9.18894C17.1075 8.27967 18.9996 7.80611 20.9207 7.81101C22.6833 7.81429 24.4229 8.21265 26.0113 8.97681C27.5997 9.74096 28.9966 10.8515 30.0993 12.2267C31.202 13.6018 31.9824 15.2067 32.3831 16.9232C32.7838 18.6398 32.7946 20.4243 32.4148 22.1456C32.0349 23.8668 31.274 25.481 30.1881 26.8695C29.1021 28.2579 27.7188 29.3853 26.1397 30.1686C24.5607 30.952 22.8261 31.3714 21.0636 31.396C19.3011 31.4207 17.5555 31.0499 15.9551 30.311C15.8733 30.2737 15.7844 30.2547 15.6945 30.2551H11.0827C10.9567 30.2553 10.8338 30.2939 10.7302 30.3656C10.6266 30.4373 10.5473 30.5389 10.5029 30.6568C10.4584 30.7747 10.4509 30.9033 10.4813 31.0256C10.5117 31.1479 10.5786 31.258 10.6731 31.3414C13.7166 33.9466 17.6452 35.2819 21.6459 35.0711C25.6465 34.8603 29.413 33.1193 32.1658 30.2087C34.9186 27.298 36.447 23.4403 36.4346 19.4341C36.4222 15.4279 34.87 11.5798 32.0993 8.68618ZM33.7689 5.33446C33.9994 5.33446 34.2204 5.42601 34.3834 5.58897C34.5464 5.75194 34.6379 5.97296 34.6379 6.20343C34.6379 6.43389 34.5464 6.65491 34.3834 6.81788C34.2204 6.98084 33.9994 7.07239 33.7689 7.07239C33.5751 7.07252 33.3869 7.00688 33.2351 6.88618C33.2142 6.83931 33.1871 6.79546 33.1545 6.75584C33.1207 6.73092 33.0855 6.70811 33.0489 6.68756C32.9516 6.54489 32.8997 6.37613 32.9 6.20343C32.9 5.97296 32.9915 5.75194 33.1545 5.58897C33.3175 5.42601 33.5385 5.33446 33.7689 5.33446Z" fill="#0B8CAD"/>
</svg>
