<svg width="36" height="36" viewBox="0 0 36 36" fill="none" xmlns="http://www.w3.org/2000/svg">
<path fill-rule="evenodd" clip-rule="evenodd" d="M34.3346 10.433C33.919 10.753 33.4659 11.027 32.9776 11.2359C33.9253 13.3341 34.4348 15.631 34.4348 18C34.4348 27.0626 27.0626 34.4348 18 34.4348C8.93739 34.4348 1.56522 27.0626 1.56522 18C1.56522 8.93739 8.93739 1.56522 18 1.56522C21.1477 1.56522 24.221 2.48791 26.8505 4.16817C26.7034 4.57983 26.6087 5.01652 26.6087 5.47826C26.6087 7.63591 28.3641 9.3913 30.5217 9.3913C32.6794 9.3913 34.4348 7.63591 34.4348 5.47826C34.4348 3.32061 32.6794 1.56522 30.5217 1.56522C29.3885 1.56522 28.3743 2.05748 27.659 2.82991C24.7868 1.00252 21.4333 0 18 0C8.07496 0 0 8.07496 0 18C0 27.925 8.07496 36 18 36C27.925 36 36 27.925 36 18C36 15.3462 35.4185 12.7722 34.3346 10.433Z" fill="#0B8CAD"/>
</svg>
